<svg width="1440" height="254" viewBox="0 0 1440 254" fill="none" xmlns="http://www.w3.org/2000/svg">
<path d="M-236.46 -507H-282V-461.46M-236.46 -507V-461.46M-236.46 -507H-190.921M-282 -461.46H-236.46M-282 -461.46V-415.921M-236.46 -461.46V-415.921M-236.46 -461.46H-190.921M-190.921 -507V-461.46M-190.921 -507H-145.381M-236.46 -415.921H-282M-236.46 -415.921V-370.381M-236.46 -415.921H-190.921M-190.921 -461.46V-415.921M-190.921 -461.46H-145.381M-282 -415.921V-370.381M-236.46 -370.381H-282M-236.46 -370.381V-324.842M-236.46 -370.381H-190.921M-190.921 -415.921V-370.381M-190.921 -415.921H-145.381M-282 -370.381V-324.842M-236.46 -324.842H-282M-236.46 -324.842V-279.302M-236.46 -324.842H-190.921M-190.921 -370.381V-324.842M-190.921 -370.381H-145.381M-282 -324.842V-279.302M-236.46 -279.302H-282M-236.46 -279.302V-233.763M-236.46 -279.302H-190.921M-190.921 -324.842V-279.302M-190.921 -324.842H-145.381M-282 -279.302V-233.763M-236.46 -233.763H-282M-236.46 -233.763V-188.223M-236.46 -233.763H-190.921M-190.921 -279.302V-233.763M-190.921 -279.302H-145.381M-282 -233.763V-188.223M-236.46 -188.223H-282M-236.46 -188.223V-142.684M-236.46 -188.223H-190.921M-190.921 -233.763V-188.223M-190.921 -233.763H-145.381M-282 -188.223V-142.684M-236.46 -142.684H-282M-236.46 -142.684V-97.144M-236.46 -142.684H-190.921M-190.921 -188.223V-142.684M-190.921 -188.223H-145.381M-282 -142.684V-97.144M-236.46 -97.144H-282M-236.46 -97.144V-51.6044M-236.46 -97.144H-190.921M-190.921 -142.684V-97.144M-190.921 -142.684H-145.381M-282 -97.144V-51.6044M-236.46 -51.6044H-282M-236.46 -51.6044V-6.06488M-236.46 -51.6044H-190.921M-190.921 -97.144V-51.6044M-190.921 -97.144H-145.381M-282 -51.6044V-6.06488M-236.46 -6.06488H-282M-236.46 -6.06488V39.4747M-236.46 -6.06488H-190.921M-190.921 -51.6044V-6.06488M-190.921 -51.6044H-145.381M-282 -6.06488V39.4747M-236.46 39.4747H-282M-236.46 39.4747V85.0142M-236.46 39.4747H-190.921M-190.921 -6.06488V39.4747M-190.921 -6.06488H-145.381M-282 39.4747V85.0142M-236.46 85.0142H-282M-236.46 85.0142V130.554M-236.46 85.0142H-190.921M-190.921 39.4747V85.0142M-190.921 39.4747H-145.381M-282 85.0142V130.554M-236.46 130.554H-282M-236.46 130.554V176.093M-236.46 130.554H-190.921M-190.921 85.0142V130.554M-190.921 85.0142H-145.381M-282 130.554V176.093M-236.46 176.093H-282M-236.46 176.093V221.633M-236.46 176.093H-190.921M-190.921 130.554V176.093M-190.921 130.554H-145.381M-282 176.093V221.633M-236.46 221.633H-282M-236.46 221.633V267.172M-236.46 221.633H-190.921M-190.921 176.093V221.633M-190.921 176.093H-145.381M-282 221.633V267.172M-236.46 267.172H-282M-236.46 267.172V312.712M-236.46 267.172H-190.921M-190.921 221.633V267.172M-190.921 221.633H-145.381M-282 267.172V312.712M-236.46 312.712H-282M-236.46 312.712V358.252M-236.46 312.712H-190.921M-190.921 267.172V312.712M-190.921 267.172H-145.381M-282 312.712V358.252H-236.46M-236.46 358.252H-190.921M-190.921 312.712V358.252M-190.921 312.712H-145.381M-190.921 358.252H-145.381M-145.381 -507V-461.46M-145.381 -507H-99.8418M-145.381 -461.46V-415.921M-145.381 -461.46H-99.8418M-145.381 -415.921V-370.381M-145.381 -415.921H-99.8418M-145.381 -370.381V-324.842M-145.381 -370.381H-99.8418M-145.381 -324.842V-279.302M-145.381 -324.842H-99.8418M-145.381 -279.302V-233.763M-145.381 -279.302H-99.8418M-145.381 -233.763V-188.223M-145.381 -233.763H-99.8418M-145.381 -188.223V-142.684M-145.381 -188.223H-99.8418M-145.381 -142.684V-97.144M-145.381 -142.684H-99.8418M-145.381 -97.144V-51.6044M-145.381 -97.144H-99.8418M-145.381 -51.6044V-6.06488M-145.381 -51.6044H-99.8418M-145.381 -6.06488V39.4747M-145.381 -6.06488H-99.8418M-145.381 39.4747V85.0142M-145.381 39.4747H-99.8418M-145.381 85.0142V130.554M-145.381 85.0142H-99.8418M-145.381 130.554V176.093M-145.381 130.554H-99.8418M-145.381 176.093V221.633M-145.381 176.093H-99.8418M-145.381 221.633V267.172M-145.381 221.633H-99.8418M-145.381 267.172V312.712M-145.381 267.172H-99.8418M-145.381 312.712V358.252M-145.381 312.712H-99.8418M-145.381 358.252H-99.8418M-99.8418 -507V-461.46M-99.8418 -507H-54.3022M-99.8418 -461.46V-415.921M-99.8418 -461.46H-54.3022M-99.8418 -415.921V-370.381M-99.8418 -415.921H-54.3022M-99.8418 -370.381V-324.842M-99.8418 -370.381H-54.3022M-99.8418 -324.842V-279.302M-99.8418 -324.842H-54.3022M-99.8418 -279.302V-233.763M-99.8418 -279.302H-54.3022M-99.8418 -233.763V-188.223M-99.8418 -233.763H-54.3022M-99.8418 -188.223V-142.684M-99.8418 -188.223H-54.3022M-99.8418 -142.684V-97.144M-99.8418 -142.684H-54.3022M-99.8418 -97.144V-51.6044M-99.8418 -97.144H-54.3022M-99.8418 -51.6044V-6.06488M-99.8418 -51.6044H-54.3022M-99.8418 -6.06488V39.4747M-99.8418 -6.06488H-54.3022M-99.8418 39.4747V85.0142M-99.8418 39.4747H-54.3022M-99.8418 85.0142V130.554M-99.8418 85.0142H-54.3022M-99.8418 130.554V176.093M-99.8418 130.554H-54.3022M-99.8418 176.093V221.633M-99.8418 176.093H-54.3022M-99.8418 221.633V267.172M-99.8418 221.633H-54.3022M-99.8418 267.172V312.712M-99.8418 267.172H-54.3022M-99.8418 312.712V358.252M-99.8418 312.712H-54.3022M-99.8418 358.252H-54.3022M-54.3022 -507V-461.46M-54.3022 -507H-8.76268M-54.3022 -461.46V-415.921M-54.3022 -461.46H-8.76268M-54.3022 -415.921V-370.381M-54.3022 -415.921H-8.76268M-54.3022 -370.381V-324.842M-54.3022 -370.381H-8.76268M-54.3022 -324.842V-279.302M-54.3022 -324.842H-8.76268M-54.3022 -279.302V-233.763M-54.3022 -279.302H-8.76268M-54.3022 -233.763V-188.223M-54.3022 -233.763H-8.76268M-54.3022 -188.223V-142.684M-54.3022 -188.223H-8.76268M-54.3022 -142.684V-97.144M-54.3022 -142.684H-8.76268M-54.3022 -97.144V-51.6044M-54.3022 -97.144H-8.76268M-54.3022 -51.6044V-6.06488M-54.3022 -51.6044H-8.76268M-54.3022 -6.06488V39.4747M-54.3022 -6.06488H-8.76268M-54.3022 39.4747V85.0142M-54.3022 39.4747H-8.76268M-54.3022 85.0142V130.554M-54.3022 85.0142H-8.76268M-54.3022 130.554V176.093M-54.3022 130.554H-8.76268M-54.3022 176.093V221.633M-54.3022 176.093H-8.76268M-54.3022 221.633V267.172M-54.3022 221.633H-8.76268M-54.3022 267.172V312.712M-54.3022 267.172H-8.76268M-54.3022 312.712V358.252M-54.3022 312.712H-8.76268M-54.3022 358.252H-8.76268M-8.76268 -507V-461.46M-8.76268 -507H36.7769M-8.76268 -461.46V-415.921M-8.76268 -461.46H36.7769M-8.76268 -415.921V-370.381M-8.76268 -415.921H36.7769M-8.76268 -370.381V-324.842M-8.76268 -370.381H36.7769M-8.76268 -324.842V-279.302M-8.76268 -324.842H36.7769M-8.76268 -279.302V-233.763M-8.76268 -279.302H36.7769M-8.76268 -233.763V-188.223M-8.76268 -233.763H36.7769M-8.76268 -188.223V-142.684M-8.76268 -188.223H36.7769M-8.76268 -142.684V-97.144M-8.76268 -142.684H36.7769M-8.76268 -97.144V-51.6044M-8.76268 -97.144H36.7769M-8.76268 -51.6044V-6.06488M-8.76268 -51.6044H36.7769M-8.76268 -6.06488V39.4747M-8.76268 -6.06488H36.7769M-8.76268 39.4747V85.0142M-8.76268 39.4747H36.7769M-8.76268 85.0142V130.554M-8.76268 85.0142H36.7769M-8.76268 130.554V176.093M-8.76268 130.554H36.7769M-8.76268 176.093V221.633M-8.76268 176.093H36.7769M-8.76268 221.633V267.172M-8.76268 221.633H36.7769M-8.76268 267.172V312.712M-8.76268 267.172H36.7769M-8.76268 312.712V358.252M-8.76268 312.712H36.7769M-8.76268 358.252H36.7769M36.7769 -507V-461.46M36.7769 -507H82.3164M36.7769 -461.46V-415.921M36.7769 -461.46H82.3164M36.7769 -415.921V-370.381M36.7769 -415.921H82.3164M36.7769 -370.381V-324.842M36.7769 -370.381H82.3164M36.7769 -324.842V-279.302M36.7769 -324.842H82.3164M36.7769 -279.302V-233.763M36.7769 -279.302H82.3164M36.7769 -233.763V-188.223M36.7769 -233.763H82.3164M36.7769 -188.223V-142.684M36.7769 -188.223H82.3164M36.7769 -142.684V-97.144M36.7769 -142.684H82.3164M36.7769 -97.144V-51.6044M36.7769 -97.144H82.3164M36.7769 -51.6044V-6.06488M36.7769 -51.6044H82.3164M36.7769 -6.06488V39.4747M36.7769 -6.06488H82.3164M36.7769 39.4747V85.0142M36.7769 39.4747H82.3164M36.7769 85.0142V130.554M36.7769 85.0142H82.3164M36.7769 130.554V176.093M36.7769 130.554H82.3164M36.7769 176.093V221.633M36.7769 176.093H82.3164M36.7769 221.633V267.172M36.7769 221.633H82.3164M36.7769 267.172V312.712M36.7769 267.172H82.3164M36.7769 312.712V358.252M36.7769 312.712H82.3164M36.7769 358.252H82.3164M82.3164 -507V-461.46M82.3164 -507H127.856M82.3164 -461.46V-415.921M82.3164 -461.46H127.856M82.3164 -415.921V-370.381M82.3164 -415.921H127.856M82.3164 -370.381V-324.842M82.3164 -370.381H127.856M82.3164 -324.842V-279.302M82.3164 -324.842H127.856M82.3164 -279.302V-233.763M82.3164 -279.302H127.856M82.3164 -233.763V-188.223M82.3164 -233.763H127.856M82.3164 -188.223V-142.684M82.3164 -188.223H127.856M82.3164 -142.684V-97.144M82.3164 -142.684H127.856M82.3164 -97.144V-51.6044M82.3164 -97.144H127.856M82.3164 -51.6044V-6.06488M82.3164 -51.6044H127.856M82.3164 -6.06488V39.4747M82.3164 -6.06488H127.856M82.3164 39.4747V85.0142M82.3164 39.4747H127.856M82.3164 85.0142V130.554M82.3164 85.0142H127.856M82.3164 130.554V176.093M82.3164 130.554H127.856M82.3164 176.093V221.633M82.3164 176.093H127.856M82.3164 221.633V267.172M82.3164 221.633H127.856M82.3164 267.172V312.712M82.3164 267.172H127.856M82.3164 312.712V358.252M82.3164 312.712H127.856M82.3164 358.252H127.856M127.856 -507V-461.46M127.856 -507H173.396M127.856 -461.46V-415.921M127.856 -461.46H173.396M127.856 -415.921V-370.381M127.856 -415.921H173.396M127.856 -370.381V-324.842M127.856 -370.381H173.396M127.856 -324.842V-279.302M127.856 -324.842H173.396M127.856 -279.302V-233.763M127.856 -279.302H173.396M127.856 -233.763V-188.223M127.856 -233.763H173.396M127.856 -188.223V-142.684M127.856 -188.223H173.396M127.856 -142.684V-97.144M127.856 -142.684H173.396M127.856 -97.144V-51.6044M127.856 -97.144H173.396M127.856 -51.6044V-6.06488M127.856 -51.6044H173.396M127.856 -6.06488V39.4747M127.856 -6.06488H173.396M127.856 39.4747V85.0142M127.856 39.4747H173.396M127.856 85.0142V130.554M127.856 85.0142H173.396M127.856 130.554V176.093M127.856 130.554H173.396M127.856 176.093V221.633M127.856 176.093H173.396M127.856 221.633V267.172M127.856 221.633H173.396M127.856 267.172V312.712M127.856 267.172H173.396M127.856 312.712V358.252M127.856 312.712H173.396M127.856 358.252H173.396M173.396 -507V-461.46M173.396 -507H218.935M173.396 -461.46V-415.921M173.396 -461.46H218.935M173.396 -415.921V-370.381M173.396 -415.921H218.935M173.396 -370.381V-324.842M173.396 -370.381H218.935M173.396 -324.842V-279.302M173.396 -324.842H218.935M173.396 -279.302V-233.763M173.396 -279.302H218.935M173.396 -233.763V-188.223M173.396 -233.763H218.935M173.396 -188.223V-142.684M173.396 -188.223H218.935M173.396 -142.684V-97.144M173.396 -142.684H218.935M173.396 -97.144V-51.6044M173.396 -97.144H218.935M173.396 -51.6044V-6.06488M173.396 -51.6044H218.935M173.396 -6.06488V39.4747M173.396 -6.06488H218.935M173.396 39.4747V85.0142M173.396 39.4747H218.935M173.396 85.0142V130.554M173.396 85.0142H218.935M173.396 130.554V176.093M173.396 130.554H218.935M173.396 176.093V221.633M173.396 176.093H218.935M173.396 221.633V267.172M173.396 221.633H218.935M173.396 267.172V312.712M173.396 267.172H218.935M173.396 312.712V358.252M173.396 312.712H218.935M173.396 358.252H218.935M218.935 -507V-461.46M218.935 -507H264.475M218.935 -461.46V-415.921M218.935 -461.46H264.475M218.935 -415.921V-370.381M218.935 -415.921H264.475M218.935 -370.381V-324.842M218.935 -370.381H264.475M218.935 -324.842V-279.302M218.935 -324.842H264.475M218.935 -279.302V-233.763M218.935 -279.302H264.475M218.935 -233.763V-188.223M218.935 -233.763H264.475M218.935 -188.223V-142.684M218.935 -188.223H264.475M218.935 -142.684V-97.144M218.935 -142.684H264.475M218.935 -97.144V-51.6044M218.935 -97.144H264.475M218.935 -51.6044V-6.06488M218.935 -51.6044H264.475M218.935 -6.06488V39.4747M218.935 -6.06488H264.475M218.935 39.4747V85.0142M218.935 39.4747H264.475M218.935 85.0142V130.554M218.935 85.0142H264.475M218.935 130.554V176.093M218.935 130.554H264.475M218.935 176.093V221.633M218.935 176.093H264.475M218.935 221.633V267.172M218.935 221.633H264.475M218.935 267.172V312.712M218.935 267.172H264.475M218.935 312.712V358.252M218.935 312.712H264.475M218.935 358.252H264.475M264.475 -507V-461.46M264.475 -507H310.014M264.475 -461.46V-415.921M264.475 -461.46H310.014M264.475 -415.921V-370.381M264.475 -415.921H310.014M264.475 -370.381V-324.842M264.475 -370.381H310.014M264.475 -324.842V-279.302M264.475 -324.842H310.014M264.475 -279.302V-233.763M264.475 -279.302H310.014M264.475 -233.763V-188.223M264.475 -233.763H310.014M264.475 -188.223V-142.684M264.475 -188.223H310.014M264.475 -142.684V-97.144M264.475 -142.684H310.014M264.475 -97.144V-51.6044M264.475 -97.144H310.014M264.475 -51.6044V-6.06488M264.475 -51.6044H310.014M264.475 -6.06488V39.4747M264.475 -6.06488H310.014M264.475 39.4747V85.0142M264.475 39.4747H310.014M264.475 85.0142V130.554M264.475 85.0142H310.014M264.475 130.554V176.093M264.475 130.554H310.014M264.475 176.093V221.633M264.475 176.093H310.014M264.475 221.633V267.172M264.475 221.633H310.014M264.475 267.172V312.712M264.475 267.172H310.014M264.475 312.712V358.252M264.475 312.712H310.014M264.475 358.252H310.014M310.014 -507V-461.46M310.014 -507H355.554M310.014 -461.46V-415.921M310.014 -461.46H355.554M310.014 -415.921V-370.381M310.014 -415.921H355.554M310.014 -370.381V-324.842M310.014 -370.381H355.554M310.014 -324.842V-279.302M310.014 -279.302V-233.763M310.014 -233.763V-188.223M310.014 -188.223V-142.684M310.014 -188.223H355.554V-142.684M310.014 -142.684V-97.144M310.014 -142.684H355.554M310.014 -97.144V-51.6044M310.014 -97.144H355.554M310.014 -51.6044V-6.06488M310.014 -51.6044H355.554M310.014 -6.06488V39.4747M310.014 -6.06488H355.554M310.014 39.4747V85.0142M310.014 39.4747H355.554M310.014 85.0142V130.554M310.014 85.0142H355.554M310.014 130.554V176.093M310.014 130.554H355.554M310.014 176.093V221.633M310.014 176.093H355.554M310.014 221.633V267.172M310.014 221.633H355.554M310.014 267.172V312.712M310.014 267.172H355.554M310.014 312.712V358.252M310.014 312.712H355.554M310.014 358.252H355.554M355.554 -507V-461.46M355.554 -507H401.093M355.554 -461.46V-415.921M355.554 -461.46H401.093M355.554 -415.921V-370.381M355.554 -415.921H401.093M355.554 -370.381H401.093M355.554 -142.684V-97.144M355.554 -142.684H401.093V-97.144M355.554 -97.144V-51.6044M355.554 -97.144H401.093M355.554 -51.6044V-6.06488M355.554 -51.6044H401.093M355.554 -6.06488V39.4747M355.554 -6.06488H401.093M355.554 39.4747V85.0142M355.554 39.4747H401.093M355.554 85.0142V130.554M355.554 85.0142H401.093M355.554 130.554V176.093M355.554 130.554H401.093M355.554 176.093V221.633M355.554 176.093H401.093M355.554 221.633V267.172M355.554 221.633H401.093M355.554 267.172V312.712M355.554 267.172H401.093M355.554 312.712V358.252M355.554 312.712H401.093M355.554 358.252H401.093M401.093 -507V-461.46M401.093 -507H446.633M401.093 -461.46V-415.921M401.093 -461.46H446.633M401.093 -415.921V-370.381M401.093 -415.921H446.633M401.093 -370.381H446.633M401.093 -97.144V-51.6044M401.093 -51.6044V-6.06488M401.093 -51.6044H446.633M401.093 -6.06488V39.4747M401.093 -6.06488H446.633M401.093 39.4747V85.0142M401.093 39.4747H446.633M401.093 85.0142V130.554M401.093 85.0142H446.633M401.093 130.554V176.093M401.093 130.554H446.633M401.093 176.093V221.633M401.093 176.093H446.633M401.093 221.633V267.172M401.093 221.633H446.633M401.093 267.172V312.712M401.093 267.172H446.633M401.093 312.712V358.252M401.093 312.712H446.633M401.093 358.252H446.633M446.633 -507V-461.46M446.633 -507H492.172M446.633 -461.46V-415.921M446.633 -461.46H492.172M446.633 -415.921V-370.381M446.633 -415.921H492.172M446.633 -370.381H492.172M446.633 -51.6044V-6.06488M446.633 -51.6044H492.172V-6.06488M446.633 -6.06488V39.4747M446.633 -6.06488H492.172M446.633 39.4747V85.0142M446.633 39.4747H492.172M446.633 85.0142V130.554M446.633 85.0142H492.172M446.633 130.554V176.093M446.633 130.554H492.172M446.633 176.093V221.633M446.633 176.093H492.172M446.633 221.633V267.172M446.633 221.633H492.172M446.633 267.172V312.712M446.633 267.172H492.172M446.633 312.712V358.252M446.633 312.712H492.172M446.633 358.252H492.172M492.172 -507V-461.46M492.172 -507H537.712M492.172 -461.46V-415.921M492.172 -461.46H537.712M492.172 -415.921V-370.381M492.172 -415.921H537.712M492.172 -370.381H537.712M492.172 -6.06488V39.4747M492.172 -6.06488H537.712M492.172 39.4747V85.0142M492.172 39.4747H537.712M492.172 85.0142V130.554M492.172 85.0142H537.712M492.172 130.554V176.093M492.172 130.554H537.712M492.172 176.093V221.633M492.172 176.093H537.712M492.172 221.633V267.172M492.172 221.633H537.712M492.172 267.172V312.712M492.172 267.172H537.712M492.172 312.712V358.252M492.172 312.712H537.712M492.172 358.252H537.712M537.712 -507V-461.46M537.712 -507H583.251M537.712 -461.46V-415.921M537.712 -461.46H583.251M537.712 -415.921V-370.381M537.712 -415.921H583.251M537.712 -370.381H583.251M537.712 -6.06488V39.4747M537.712 -6.06488H583.251M537.712 39.4747V85.0142M537.712 39.4747H583.251M537.712 85.0142V130.554M537.712 85.0142H583.251M537.712 130.554V176.093M537.712 130.554H583.251M537.712 176.093V221.633M537.712 176.093H583.251M537.712 221.633V267.172M537.712 221.633H583.251M537.712 267.172V312.712M537.712 267.172H583.251M537.712 312.712V358.252M537.712 312.712H583.251M537.712 358.252H583.251M583.251 -507V-461.46M583.251 -507H628.791M583.251 -461.46V-415.921M583.251 -461.46H628.791M583.251 -415.921V-370.381M583.251 -415.921H628.791M583.251 -370.381H628.791M583.251 -6.06488V39.4747M583.251 -6.06488H628.791M583.251 39.4747V85.0142M583.251 39.4747H628.791M583.251 85.0142V130.554M583.251 85.0142H628.791M583.251 130.554V176.093M583.251 130.554H628.791M583.251 176.093V221.633M583.251 176.093H628.791M583.251 221.633V267.172M583.251 221.633H628.791M583.251 267.172V312.712M583.251 267.172H628.791M583.251 312.712V358.252M583.251 312.712H628.791M583.251 358.252H628.791M628.791 -507V-461.46M628.791 -507H674.331M628.791 -461.46V-415.921M628.791 -461.46H674.331M628.791 -415.921V-370.381M628.791 -415.921H674.331M628.791 -370.381H674.331M628.791 -6.06488V39.4747M628.791 -6.06488H674.331M628.791 39.4747V85.0142M628.791 39.4747H674.331M628.791 85.0142V130.554M628.791 85.0142H674.331M628.791 130.554V176.093M628.791 130.554H674.331M628.791 176.093V221.633M628.791 176.093H674.331M628.791 221.633V267.172M628.791 221.633H674.331M628.791 267.172V312.712M628.791 267.172H674.331M628.791 312.712V358.252M628.791 312.712H674.331M628.791 358.252H674.331M674.331 -507V-461.46M674.331 -507H719.87M674.331 -461.46V-415.921M674.331 -461.46H719.87M674.331 -415.921V-370.381M674.331 -415.921H719.87M674.331 -370.381H719.87M674.331 -6.06488V39.4747M674.331 -6.06488H719.87M674.331 39.4747V85.0142M674.331 39.4747H719.87M674.331 85.0142V130.554M674.331 85.0142H719.87M674.331 130.554V176.093M674.331 130.554H719.87M674.331 176.093V221.633M674.331 176.093H719.87M674.331 221.633V267.172M674.331 221.633H719.87M674.331 267.172V312.712M674.331 267.172H719.87M674.331 312.712V358.252M674.331 312.712H719.87M674.331 358.252H719.87M719.87 -507V-461.46M719.87 -507H765.41M719.87 -461.46V-415.921M719.87 -461.46H765.41M719.87 -415.921V-370.381M719.87 -415.921H765.41M719.87 -370.381H765.41M719.87 -6.06488V39.4747M719.87 -6.06488H765.41M719.87 39.4747V85.0142M719.87 39.4747H765.41M719.87 85.0142V130.554M719.87 85.0142H765.41M719.87 130.554V176.093M719.87 130.554H765.41M719.87 176.093V221.633M719.87 176.093H765.41M719.87 221.633V267.172M719.87 221.633H765.41M719.87 267.172V312.712M719.87 267.172H765.41M719.87 312.712V358.252M719.87 312.712H765.41M719.87 358.252H765.41M765.41 -507V-461.46M765.41 -507H810.949M765.41 -461.46V-415.921M765.41 -461.46H810.949M765.41 -415.921V-370.381M765.41 -415.921H810.949M765.41 -370.381H810.949M765.41 -6.06488V39.4747M765.41 -6.06488H810.949M765.41 39.4747V85.0142M765.41 39.4747H810.949M765.41 85.0142V130.554M765.41 85.0142H810.949M765.41 130.554V176.093M765.41 130.554H810.949M765.41 176.093V221.633M765.41 176.093H810.949M765.41 221.633V267.172M765.41 221.633H810.949M765.41 267.172V312.712M765.41 267.172H810.949M765.41 312.712V358.252M765.41 312.712H810.949M765.41 358.252H810.949M810.949 -507V-461.46M810.949 -507H856.489M810.949 -461.46V-415.921M810.949 -461.46H856.489M810.949 -415.921V-370.381M810.949 -415.921H856.489M810.949 -370.381H856.489M810.949 -6.06488V39.4747M810.949 -6.06488H856.489M810.949 39.4747V85.0142M810.949 39.4747H856.489M810.949 85.0142V130.554M810.949 85.0142H856.489M810.949 130.554V176.093M810.949 130.554H856.489M810.949 176.093V221.633M810.949 176.093H856.489M810.949 221.633V267.172M810.949 221.633H856.489M810.949 267.172V312.712M810.949 267.172H856.489M810.949 312.712V358.252M810.949 312.712H856.489M810.949 358.252H856.489M856.489 -507V-461.46M856.489 -507H902.028M856.489 -461.46V-415.921M856.489 -461.46H902.028M856.489 -415.921V-370.381M856.489 -415.921H902.028M856.489 -370.381H902.028M856.489 -6.06488V39.4747M856.489 -6.06488H902.028M856.489 39.4747V85.0142M856.489 39.4747H902.028M856.489 85.0142V130.554M856.489 85.0142H902.028M856.489 130.554V176.093M856.489 130.554H902.028M856.489 176.093V221.633M856.489 176.093H902.028M856.489 221.633V267.172M856.489 221.633H902.028M856.489 267.172V312.712M856.489 267.172H902.028M856.489 312.712V358.252M856.489 312.712H902.028M856.489 358.252H902.028M902.028 -507V-461.46M902.028 -507H947.568M902.028 -461.46V-415.921M902.028 -461.46H947.568M902.028 -415.921V-370.381M902.028 -415.921H947.568M902.028 -370.381H947.568M902.028 -6.06488V39.4747M902.028 -6.06488H947.568M902.028 39.4747V85.0142M902.028 39.4747H947.568M902.028 85.0142V130.554M902.028 85.0142H947.568M902.028 130.554V176.093M902.028 130.554H947.568M902.028 176.093V221.633M902.028 176.093H947.568M902.028 221.633V267.172M902.028 221.633H947.568M902.028 267.172V312.712M902.028 267.172H947.568M902.028 312.712V358.252M902.028 312.712H947.568M902.028 358.252H947.568M947.568 -507V-461.46M947.568 -507H993.107M947.568 -461.46V-415.921M947.568 -461.46H993.107M947.568 -415.921V-370.381M947.568 -415.921H993.107M947.568 -370.381H993.107M947.568 -6.06488V-51.6044H993.107M947.568 -6.06488V39.4747M947.568 -6.06488H993.107M947.568 39.4747V85.0142M947.568 39.4747H993.107M947.568 85.0142V130.554M947.568 85.0142H993.107M947.568 130.554V176.093M947.568 130.554H993.107M947.568 176.093V221.633M947.568 176.093H993.107M947.568 221.633V267.172M947.568 221.633H993.107M947.568 267.172V312.712M947.568 267.172H993.107M947.568 312.712V358.252M947.568 312.712H993.107M947.568 358.252H993.107M993.107 -507V-461.46M993.107 -507H1038.65M993.107 -461.46V-415.921M993.107 -461.46H1038.65M993.107 -415.921V-370.381M993.107 -415.921H1038.65M993.107 -370.381H1038.65M993.107 -51.6044V-6.06488M993.107 -51.6044H1038.65M993.107 -6.06488V39.4747M993.107 -6.06488H1038.65M993.107 39.4747V85.0142M993.107 39.4747H1038.65M993.107 85.0142V130.554M993.107 85.0142H1038.65M993.107 130.554V176.093M993.107 130.554H1038.65M993.107 176.093V221.633M993.107 176.093H1038.65M993.107 221.633V267.172M993.107 221.633H1038.65M993.107 267.172V312.712M993.107 267.172H1038.65M993.107 312.712V358.252M993.107 312.712H1038.65M993.107 358.252H1038.65M1038.65 -507V-461.46M1038.65 -507H1084.19M1038.65 -461.46V-415.921M1038.65 -461.46H1084.19M1038.65 -415.921V-370.381M1038.65 -415.921H1084.19M1038.65 -370.381H1084.19M1038.65 -97.144V-142.684H1084.19M1038.65 -97.144V-51.6044M1038.65 -97.144H1084.19M1038.65 -51.6044V-6.06488M1038.65 -51.6044H1084.19M1038.65 -6.06488V39.4747M1038.65 -6.06488H1084.19M1038.65 39.4747V85.0142M1038.65 39.4747H1084.19M1038.65 85.0142V130.554M1038.65 85.0142H1084.19M1038.65 130.554V176.093M1038.65 130.554H1084.19M1038.65 176.093V221.633M1038.65 176.093H1084.19M1038.65 221.633V267.172M1038.65 221.633H1084.19M1038.65 267.172V312.712M1038.65 267.172H1084.19M1038.65 312.712V358.252M1038.65 312.712H1084.19M1038.65 358.252H1084.19M1084.19 -507V-461.46M1084.19 -507H1129.73M1084.19 -461.46V-415.921M1084.19 -461.46H1129.73M1084.19 -415.921V-370.381M1084.19 -415.921H1129.73M1084.19 -370.381H1129.73M1084.19 -142.684V-188.223H1129.73M1084.19 -142.684V-97.144M1084.19 -142.684H1129.73M1084.19 -97.144V-51.6044M1084.19 -97.144H1129.73M1084.19 -51.6044V-6.06488M1084.19 -51.6044H1129.73M1084.19 -6.06488V39.4747M1084.19 -6.06488H1129.73M1084.19 39.4747V85.0142M1084.19 39.4747H1129.73M1084.19 85.0142V130.554M1084.19 85.0142H1129.73M1084.19 130.554V176.093M1084.19 130.554H1129.73M1084.19 176.093V221.633M1084.19 176.093H1129.73M1084.19 221.633V267.172M1084.19 221.633H1129.73M1084.19 267.172V312.712M1084.19 267.172H1129.73M1084.19 312.712V358.252M1084.19 312.712H1129.73M1084.19 358.252H1129.73M1129.73 -507V-461.46M1129.73 -507H1175.27M1129.73 -461.46V-415.921M1129.73 -461.46H1175.27M1129.73 -415.921V-370.381M1129.73 -415.921H1175.27M1129.73 -370.381V-324.842M1129.73 -370.381H1175.27M1129.73 -279.302V-324.842M1129.73 -279.302V-233.763M1129.73 -279.302H1175.27M1129.73 -324.842H1175.27M1129.73 -188.223V-233.763M1129.73 -188.223V-142.684M1129.73 -188.223H1175.27M1129.73 -142.684V-97.144M1129.73 -142.684H1175.27M1129.73 -97.144V-51.6044M1129.73 -97.144H1175.27M1129.73 -51.6044V-6.06488M1129.73 -51.6044H1175.27M1129.73 -6.06488V39.4747M1129.73 -6.06488H1175.27M1129.73 39.4747V85.0142M1129.73 39.4747H1175.27M1129.73 85.0142V130.554M1129.73 85.0142H1175.27M1129.73 130.554V176.093M1129.73 130.554H1175.27M1129.73 176.093V221.633M1129.73 176.093H1175.27M1129.73 221.633V267.172M1129.73 221.633H1175.27M1129.73 267.172V312.712M1129.73 267.172H1175.27M1129.73 312.712V358.252M1129.73 312.712H1175.27M1129.73 358.252H1175.27M1175.27 -507V-461.46M1175.27 -507H1220.81M1175.27 -461.46V-415.921M1175.27 -461.46H1220.81M1175.27 -415.921V-370.381M1175.27 -415.921H1220.81M1175.27 -370.381V-324.842M1175.27 -370.381H1220.81M1175.27 -324.842V-279.302M1175.27 -324.842H1220.81M1129.73 -233.763H1175.27M1175.27 -279.302V-233.763M1175.27 -279.302H1220.81M1175.27 -233.763V-188.223M1175.27 -233.763H1220.81M1175.27 -188.223V-142.684M1175.27 -188.223H1220.81M1175.27 -142.684V-97.144M1175.27 -142.684H1220.81M1175.27 -97.144V-51.6044M1175.27 -97.144H1220.81M1175.27 -51.6044V-6.06488M1175.27 -51.6044H1220.81M1175.27 -6.06488V39.4747M1175.27 -6.06488H1220.81M1175.27 39.4747V85.0142M1175.27 39.4747H1220.81M1175.27 85.0142V130.554M1175.27 85.0142H1220.81M1175.27 130.554V176.093M1175.27 130.554H1220.81M1175.27 176.093V221.633M1175.27 176.093H1220.81M1175.27 221.633V267.172M1175.27 221.633H1220.81M1175.27 267.172V312.712M1175.27 267.172H1220.81M1175.27 312.712V358.252M1175.27 312.712H1220.81M1175.27 358.252H1220.81M1220.81 -507V-461.46M1220.81 -507H1266.34M1220.81 -461.46V-415.921M1220.81 -461.46H1266.34M1220.81 -415.921V-370.381M1220.81 -415.921H1266.34M1220.81 -370.381V-324.842M1220.81 -370.381H1266.34M1220.81 -324.842V-279.302M1220.81 -324.842H1266.34M1220.81 -279.302V-233.763M1220.81 -279.302H1266.34M1220.81 -233.763V-188.223M1220.81 -233.763H1266.34M1220.81 -188.223V-142.684M1220.81 -188.223H1266.34M1220.81 -142.684V-97.144M1220.81 -142.684H1266.34M1220.81 -97.144V-51.6044M1220.81 -97.144H1266.34M1220.81 -51.6044V-6.06488M1220.81 -51.6044H1266.34M1220.81 -6.06488V39.4747M1220.81 -6.06488H1266.34M1220.81 39.4747V85.0142M1220.81 39.4747H1266.34M1220.81 85.0142V130.554M1220.81 85.0142H1266.34M1220.81 130.554V176.093M1220.81 130.554H1266.34M1220.81 176.093V221.633M1220.81 176.093H1266.34M1220.81 221.633V267.172M1220.81 221.633H1266.34M1220.81 267.172V312.712M1220.81 267.172H1266.34M1220.81 312.712V358.252M1220.81 312.712H1266.34M1220.81 358.252H1266.34M1266.34 -507V-461.46M1266.34 -507H1311.88M1266.34 -461.46V-415.921M1266.34 -461.46H1311.88M1266.34 -415.921V-370.381M1266.34 -415.921H1311.88M1266.34 -370.381V-324.842M1266.34 -370.381H1311.88M1266.34 -324.842V-279.302M1266.34 -324.842H1311.88M1266.34 -279.302V-233.763M1266.34 -279.302H1311.88M1266.34 -233.763V-188.223M1266.34 -233.763H1311.88M1266.34 -188.223V-142.684M1266.34 -188.223H1311.88M1266.34 -142.684V-97.144M1266.34 -142.684H1311.88M1266.34 -97.144V-51.6044M1266.34 -97.144H1311.88M1266.34 -51.6044V-6.06488M1266.34 -51.6044H1311.88M1266.34 -6.06488V39.4747M1266.34 -6.06488H1311.88M1266.34 39.4747V85.0142M1266.34 39.4747H1311.88M1266.34 85.0142V130.554M1266.34 85.0142H1311.88M1266.34 130.554V176.093M1266.34 130.554H1311.88M1266.34 176.093V221.633M1266.34 176.093H1311.88M1266.34 221.633V267.172M1266.34 221.633H1311.88M1266.34 267.172V312.712M1266.34 267.172H1311.88M1266.34 312.712V358.252M1266.34 312.712H1311.88M1266.34 358.252H1311.88M1311.88 -507V-461.46M1311.88 -507H1357.42M1311.88 -461.46V-415.921M1311.88 -461.46H1357.42M1311.88 -415.921V-370.381M1311.88 -415.921H1357.42M1311.88 -370.381V-324.842M1311.88 -370.381H1357.42M1311.88 -324.842V-279.302M1311.88 -324.842H1357.42M1311.88 -279.302V-233.763M1311.88 -279.302H1357.42M1311.88 -233.763V-188.223M1311.88 -233.763H1357.42M1311.88 -188.223V-142.684M1311.88 -188.223H1357.42M1311.88 -142.684V-97.144M1311.88 -142.684H1357.42M1311.88 -97.144V-51.6044M1311.88 -97.144H1357.42M1311.88 -51.6044V-6.06488M1311.88 -51.6044H1357.42M1311.88 -6.06488V39.4747M1311.88 -6.06488H1357.42M1311.88 39.4747V85.0142M1311.88 39.4747H1357.42M1311.88 85.0142V130.554M1311.88 85.0142H1357.42M1311.88 130.554V176.093M1311.88 130.554H1357.42M1311.88 176.093V221.633M1311.88 176.093H1357.42M1311.88 221.633V267.172M1311.88 221.633H1357.42M1311.88 267.172V312.712M1311.88 267.172H1357.42M1311.88 312.712V358.252M1311.88 312.712H1357.42M1311.88 358.252H1357.42M1357.42 -507V-461.46M1357.42 -507H1402.96M1357.42 -461.46V-415.921M1357.42 -461.46H1402.96M1357.42 -415.921V-370.381M1357.42 -415.921H1402.96M1357.42 -370.381V-324.842M1357.42 -370.381H1402.96M1357.42 -324.842V-279.302M1357.42 -324.842H1402.96M1357.42 -279.302V-233.763M1357.42 -279.302H1402.96M1357.42 -233.763V-188.223M1357.42 -233.763H1402.96M1357.42 -188.223V-142.684M1357.42 -188.223H1402.96M1357.42 -142.684V-97.144M1357.42 -142.684H1402.96M1357.42 -97.144V-51.6044M1357.42 -97.144H1402.96M1357.42 -51.6044V-6.06488M1357.42 -51.6044H1402.96M1357.42 -6.06488V39.4747M1357.42 -6.06488H1402.96M1357.42 39.4747V85.0142M1357.42 39.4747H1402.96M1357.42 85.0142V130.554M1357.42 85.0142H1402.96M1357.42 130.554V176.093M1357.42 130.554H1402.96M1357.42 176.093V221.633M1357.42 176.093H1402.96M1357.42 221.633V267.172M1357.42 221.633H1402.96M1357.42 267.172V312.712M1357.42 267.172H1402.96M1357.42 312.712V358.252M1357.42 312.712H1402.96M1357.42 358.252H1402.96M1402.96 -507V-461.46M1402.96 -507H1448.5M1402.96 -461.46V-415.921M1402.96 -461.46H1448.5M1402.96 -415.921V-370.381M1402.96 -415.921H1448.5M1402.96 -370.381V-324.842M1402.96 -370.381H1448.5M1402.96 -324.842V-279.302M1402.96 -324.842H1448.5M1402.96 -279.302V-233.763M1402.96 -279.302H1448.5M1402.96 -233.763V-188.223M1402.96 -233.763H1448.5M1402.96 -188.223V-142.684M1402.96 -188.223H1448.5M1402.96 -142.684V-97.144M1402.96 -142.684H1448.5M1402.96 -97.144V-51.6044M1402.96 -97.144H1448.5M1402.96 -51.6044V-6.06488M1402.96 -51.6044H1448.5M1402.96 -6.06488V39.4747M1402.96 -6.06488H1448.5M1402.96 39.4747V85.0142M1402.96 39.4747H1448.5M1402.96 85.0142V130.554M1402.96 85.0142H1448.5M1402.96 130.554V176.093M1402.96 130.554H1448.5M1402.96 176.093V221.633M1402.96 176.093H1448.5M1402.96 221.633V267.172M1402.96 221.633H1448.5M1402.96 267.172V312.712M1402.96 267.172H1448.5M1402.96 312.712V358.252M1402.96 312.712H1448.5M1402.96 358.252H1448.5M1448.5 -507V-461.46M1448.5 -507H1494.04M1448.5 -461.46V-415.921M1448.5 -461.46H1494.04M1448.5 -415.921V-370.381M1448.5 -415.921H1494.04M1448.5 -370.381V-324.842M1448.5 -370.381H1494.04M1448.5 -324.842V-279.302M1448.5 -324.842H1494.04M1448.5 -279.302V-233.763M1448.5 -279.302H1494.04M1448.5 -233.763V-188.223M1448.5 -233.763H1494.04M1448.5 -188.223V-142.684M1448.5 -188.223H1494.04M1448.5 -142.684V-97.144M1448.5 -142.684H1494.04M1448.5 -97.144V-51.6044M1448.5 -97.144H1494.04M1448.5 -51.6044V-6.06488M1448.5 -51.6044H1494.04M1448.5 -6.06488V39.4747M1448.5 -6.06488H1494.04M1448.5 39.4747V85.0142M1448.5 39.4747H1494.04M1448.5 85.0142V130.554M1448.5 85.0142H1494.04M1448.5 130.554V176.093M1448.5 130.554H1494.04M1448.5 176.093V221.633M1448.5 176.093H1494.04M1448.5 221.633V267.172M1448.5 221.633H1494.04M1448.5 267.172V312.712M1448.5 267.172H1494.04M1448.5 312.712V358.252M1448.5 312.712H1494.04M1448.5 358.252H1494.04M1494.04 -507V-461.46M1494.04 -507H1539.58M1494.04 -461.46V-415.921M1494.04 -461.46H1539.58M1494.04 -415.921V-370.381M1494.04 -415.921H1539.58M1494.04 -370.381V-324.842M1494.04 -370.381H1539.58M1494.04 -324.842V-279.302M1494.04 -324.842H1539.58M1494.04 -279.302V-233.763M1494.04 -279.302H1539.58M1494.04 -233.763V-188.223M1494.04 -233.763H1539.58M1494.04 -188.223V-142.684M1494.04 -188.223H1539.58M1494.04 -142.684V-97.144M1494.04 -142.684H1539.58M1494.04 -97.144V-51.6044M1494.04 -97.144H1539.58M1494.04 -51.6044V-6.06488M1494.04 -51.6044H1539.58M1494.04 -6.06488V39.4747M1494.04 -6.06488H1539.58M1494.04 39.4747V85.0142M1494.04 39.4747H1539.58M1494.04 85.0142V130.554M1494.04 85.0142H1539.58M1494.04 130.554V176.093M1494.04 130.554H1539.58M1494.04 176.093V221.633M1494.04 176.093H1539.58M1494.04 221.633V267.172M1494.04 221.633H1539.58M1494.04 267.172V312.712M1494.04 267.172H1539.58M1494.04 312.712V358.252M1494.04 312.712H1539.58M1494.04 358.252H1539.58M1539.58 -507V-461.46M1539.58 -507H1585.12M1539.58 -461.46V-415.921M1539.58 -461.46H1585.12M1539.58 -415.921V-370.381M1539.58 -415.921H1585.12M1539.58 -370.381V-324.842M1539.58 -370.381H1585.12M1539.58 -324.842V-279.302M1539.58 -324.842H1585.12M1539.58 -279.302V-233.763M1539.58 -279.302H1585.12M1539.58 -233.763V-188.223M1539.58 -233.763H1585.12M1539.58 -188.223V-142.684M1539.58 -188.223H1585.12M1539.58 -142.684V-97.144M1539.58 -142.684H1585.12M1539.58 -97.144V-51.6044M1539.58 -97.144H1585.12M1539.58 -51.6044V-6.06488M1539.58 -51.6044H1585.12M1539.58 -6.06488V39.4747M1539.58 -6.06488H1585.12M1539.58 39.4747V85.0142M1539.58 39.4747H1585.12M1539.58 85.0142V130.554M1539.58 85.0142H1585.12M1539.58 130.554V176.093M1539.58 130.554H1585.12M1539.58 176.093V221.633M1539.58 176.093H1585.12M1539.58 221.633V267.172M1539.58 221.633H1585.12M1539.58 267.172V312.712M1539.58 267.172H1585.12M1539.58 312.712V358.252M1539.58 312.712H1585.12M1539.58 358.252H1585.12M1585.12 -507V-461.46M1585.12 -507H1630.66M1585.12 -461.46V-415.921M1585.12 -461.46H1630.66M1585.12 -415.921V-370.381M1585.12 -415.921H1630.66M1585.12 -370.381V-324.842M1585.12 -370.381H1630.66M1585.12 -324.842V-279.302M1585.12 -324.842H1630.66M1585.12 -279.302V-233.763M1585.12 -279.302H1630.66M1585.12 -233.763V-188.223M1585.12 -233.763H1630.66M1585.12 -188.223V-142.684M1585.12 -188.223H1630.66M1585.12 -142.684V-97.144M1585.12 -142.684H1630.66M1585.12 -97.144V-51.6044M1585.12 -97.144H1630.66M1585.12 -51.6044V-6.06488M1585.12 -51.6044H1630.66M1585.12 -6.06488V39.4747M1585.12 -6.06488H1630.66M1585.12 39.4747V85.0142M1585.12 39.4747H1630.66M1585.12 85.0142V130.554M1585.12 85.0142H1630.66M1585.12 130.554V176.093M1585.12 130.554H1630.66M1585.12 176.093V221.633M1585.12 176.093H1630.66M1585.12 221.633V267.172M1585.12 221.633H1630.66M1585.12 267.172V312.712M1585.12 267.172H1630.66M1585.12 312.712V358.252M1585.12 312.712H1630.66M1585.12 358.252H1630.66M1630.66 -507V-461.46M1630.66 -507H1676.2M1630.66 -461.46V-415.921M1630.66 -461.46H1676.2M1630.66 -415.921V-370.381M1630.66 -415.921H1676.2M1630.66 -370.381V-324.842M1630.66 -370.381H1676.2M1630.66 -324.842V-279.302M1630.66 -324.842H1676.2M1630.66 -279.302V-233.763M1630.66 -279.302H1676.2M1630.66 -233.763V-188.223M1630.66 -233.763H1676.2M1630.66 -188.223V-142.684M1630.66 -188.223H1676.2M1630.66 -142.684V-97.144M1630.66 -142.684H1676.2M1630.66 -97.144V-51.6044M1630.66 -97.144H1676.2M1630.66 -51.6044V-6.06488M1630.66 -51.6044H1676.2M1630.66 -6.06488V39.4747M1630.66 -6.06488H1676.2M1630.66 39.4747V85.0142M1630.66 39.4747H1676.2M1630.66 85.0142V130.554M1630.66 85.0142H1676.2M1630.66 130.554V176.093M1630.66 130.554H1676.2M1630.66 176.093V221.633M1630.66 176.093H1676.2M1630.66 221.633V267.172M1630.66 221.633H1676.2M1630.66 267.172V312.712M1630.66 267.172H1676.2M1630.66 312.712V358.252M1630.66 312.712H1676.2M1630.66 358.252H1676.2M1676.2 -507V-461.46M1676.2 -507H1721.74V-461.46M1676.2 -461.46V-415.921M1676.2 -461.46H1721.74M1676.2 -415.921V-370.381M1676.2 -415.921H1721.74M1676.2 -370.381V-324.842M1676.2 -370.381H1721.74M1676.2 -324.842V-279.302M1676.2 -324.842H1721.74M1676.2 -279.302V-233.763M1676.2 -279.302H1721.74M1676.2 -233.763V-188.223M1676.2 -233.763H1721.74M1676.2 -188.223V-142.684M1676.2 -188.223H1721.74M1676.2 -142.684V-97.144M1676.2 -142.684H1721.74M1676.2 -97.144V-51.6044M1676.2 -97.144H1721.74M1676.2 -51.6044V-6.06488M1676.2 -51.6044H1721.74M1676.2 -6.06488V39.4747M1676.2 -6.06488H1721.74M1676.2 39.4747V85.0142M1676.2 39.4747H1721.74M1676.2 85.0142V130.554M1676.2 85.0142H1721.74M1676.2 130.554V176.093M1676.2 130.554H1721.74M1676.2 176.093V221.633M1676.2 176.093H1721.74M1676.2 221.633V267.172M1676.2 221.633H1721.74M1676.2 267.172V312.712M1676.2 267.172H1721.74M1676.2 312.712V358.252M1676.2 312.712H1721.74M1676.2 358.252H1721.74V312.712M1721.74 -461.46V-415.921M1721.74 -415.921V-370.381M1721.74 -370.381V-324.842M1721.74 -324.842V-279.302M1721.74 -279.302V-233.763M1721.74 -233.763V-188.223M1721.74 -188.223V-142.684M1721.74 -142.684V-97.144M1721.74 -97.144V-51.6044M1721.74 -51.6044V-6.06488M1721.74 -6.06488V39.4747M1721.74 39.4747V85.0142M1721.74 85.0142V130.554M1721.74 130.554V176.093M1721.74 176.093V221.633M1721.74 221.633V267.172M1721.74 267.172V312.712" stroke="url(#paint0_radial_1620_7641)" stroke-width="1.5"/>
<defs>
<radialGradient id="paint0_radial_1620_7641" cx="0" cy="0" r="1" gradientUnits="userSpaceOnUse" gradientTransform="translate(719.87 -74.3742) rotate(90) scale(432.626 809.027)">
<stop offset="0.665789" stop-color="#F7F7F7"/>
<stop offset="1" stop-color="#F7F7F7" stop-opacity="0.2"/>
</radialGradient>
</defs>
</svg>
