<svg width="17" height="12" viewBox="0 0 17 12" fill="none" xmlns="http://www.w3.org/2000/svg">
<path d="M11.3729 0.000211567C11.6427 -0.00506498 11.9041 0.0885479 12.0995 0.259694L16.1029 3.93904C16.6767 4.46706 16.9992 5.1832 16.9992 5.92948C16.9992 6.67568 16.6767 7.3913 16.1029 7.91927L12.0995 11.5993C12.0145 11.7109 11.9037 11.8045 11.7756 11.873C11.6476 11.9414 11.5048 11.9832 11.3574 11.9959C11.2097 12.0086 11.0606 11.9916 10.9208 11.9461C10.7811 11.9005 10.6537 11.8272 10.5477 11.7319C10.4418 11.6366 10.3594 11.5215 10.3069 11.3941C10.2543 11.2667 10.2329 11.1302 10.2435 10.9942C10.2541 10.8583 10.2963 10.7259 10.3681 10.6066C10.4399 10.4875 10.5393 10.3842 10.6589 10.3038L14.3568 6.90529H1.14035V5.02808H14.3666L10.6589 1.62052C10.5633 1.53329 10.4875 1.42941 10.4357 1.31509C10.3839 1.2007 10.3569 1.07794 10.3569 0.954019C10.3569 0.830129 10.3839 0.707307 10.4357 0.592944C10.4876 0.478651 10.5633 0.374725 10.6589 0.287519C10.8462 0.108904 11.103 0.00550376 11.3729 0.000211567Z" fill="#4D98E2"/>
<path d="M2.43249 6.90529H1.29116C1.02027 6.90529 0.760317 6.80632 0.568768 6.63027C0.37735 6.45429 0.269587 6.21584 0.269531 5.96701C0.269531 5.71805 0.377219 5.47914 0.568768 5.3031C0.760316 5.12706 1.02028 5.02808 1.29116 5.02808H2.43249V6.90529Z" fill="#4D98E2"/>
</svg>
