<svg width="18" height="12" viewBox="0 0 18 12" fill="none" xmlns="http://www.w3.org/2000/svg">
<path d="M17.75 5.99961C17.75 5.62605 17.5844 5.27949 17.4275 5.01926C17.2582 4.73844 17.0306 4.44852 16.7808 4.16584C16.2798 3.59877 15.6262 2.98979 14.9918 2.43892C14.3537 1.88481 13.7178 1.3746 13.2428 1.00383C13.0049 0.818131 12.8064 0.666696 12.667 0.561384C12.5973 0.508715 12.5423 0.467543 12.5044 0.439348L12.4609 0.406963L12.4493 0.39841L12.4453 0.39545C12.1118 0.149788 11.6419 0.220678 11.3962 0.55418C11.1505 0.887667 11.2217 1.35715 11.5552 1.60282L11.5679 1.61223L11.608 1.642C11.6434 1.6684 11.6958 1.70764 11.7628 1.75825C11.8968 1.85951 12.089 2.0061 12.3198 2.18628C12.7823 2.54725 13.3964 3.04014 14.0083 3.57149C14.6239 4.10608 15.2202 4.66491 15.6567 5.15898C15.6843 5.19023 15.711 5.22094 15.7369 5.2511L1 5.2511C0.585787 5.2511 0.25 5.58689 0.25 6.0011C0.25 6.41531 0.585787 6.7511 1 6.7511L15.7343 6.7511C15.7093 6.7803 15.6834 6.81003 15.6567 6.84026C15.2202 7.33433 14.6239 7.89316 14.0083 8.42774C13.3964 8.9591 12.7823 9.45199 12.3198 9.81296C12.089 9.99314 11.8968 10.1397 11.7628 10.241C11.6958 10.2916 11.6434 10.3308 11.608 10.3572L11.5679 10.387L11.5552 10.3964C11.2217 10.6421 11.1505 11.1116 11.3962 11.4451C11.6419 11.7786 12.1118 11.8495 12.4453 11.6038L12.4493 11.6008L12.4609 11.5923L12.5044 11.5599C12.5423 11.5317 12.5973 11.4905 12.667 11.4379C12.8064 11.3325 13.0049 11.1811 13.2428 10.9954C13.7178 10.6246 14.3537 10.1144 14.9918 9.56032C15.6262 9.00945 16.2798 8.40047 16.7808 7.8334C17.0306 7.55072 17.2582 7.2608 17.4275 6.97998C17.5834 6.72131 17.748 6.37733 17.75 6.00634" fill="#4D98E2"/>
</svg>
