<svg width="14" height="7" viewBox="0 0 14 7" fill="none" xmlns="http://www.w3.org/2000/svg">
<path d="M13.4167 5.83321C13.0941 5.83321 12.8333 5.57247 12.8333 5.24989V1.99146L9.00497 5.81921C8.22098 6.6032 6.94524 6.6032 6.16125 5.81921L4.65801 4.31599C4.34127 3.99925 3.82502 3.99925 3.50828 4.31599L0.995885 6.82894C0.767804 7.05702 0.399142 7.05702 0.171061 6.82894C-0.0570202 6.60086 -0.0570202 6.2322 0.171061 6.00413L2.68403 3.49118C3.45519 2.72003 4.71226 2.72003 5.48342 3.49118L6.98666 4.9944C7.31565 5.32339 7.85115 5.32339 8.18073 4.9944L12.0085 1.16664H8.75005C8.42747 1.16664 8.16673 0.905898 8.16673 0.583321C8.16673 0.260744 8.42747 -4.76837e-07 8.75005 -4.76837e-07H12.25C13.2148 -4.76837e-07 14 0.78515 14 1.74996V5.24989C14 5.57247 13.7393 5.83321 13.4167 5.83321Z" fill="white"/>
</svg>
