<svg width="16" height="14" viewBox="0 0 16 14" fill="none" xmlns="http://www.w3.org/2000/svg">
<path d="M8.97221 11.6938C8.6945 11.9105 8.21275 12.2744 8.05138 12.3963C7.71788 12.6419 7.64662 13.1114 7.89225 13.4449C8.13788 13.7785 8.60785 13.8494 8.94138 13.6037L8.94356 13.6021C9.1125 13.4745 9.61152 13.0976 9.89505 12.8763C10.4638 12.4324 11.2247 11.822 11.9878 11.1594C12.7472 10.5001 13.5259 9.77443 14.1206 9.10131C14.4172 8.76561 14.684 8.42532 14.8806 8.09916C15.0648 7.79358 15.2461 7.40669 15.2461 7.00018C15.2461 6.59367 15.0648 6.20678 14.8806 5.9012C14.684 5.57503 14.4173 5.23474 14.1206 4.89904C13.5259 4.22592 12.7472 3.50025 11.9878 2.84093C11.2247 2.17838 10.4638 1.56795 9.89501 1.12407C9.61174 0.903001 9.11292 0.526249 8.94353 0.398305L8.94085 0.396282C8.60732 0.150649 8.13783 0.221898 7.89219 0.555421C7.64656 0.888943 7.7185 1.35895 8.05202 1.60458C8.2134 1.72647 8.69446 2.08987 8.97217 2.3066C9.52839 2.74067 10.2675 3.33378 11.0044 3.97359C11.745 4.61663 12.4663 5.29214 12.9966 5.89225C13.2624 6.19316 13.4645 6.4575 13.596 6.67563C13.7196 6.88077 13.7454 6.99839 13.7454 6.99839C13.7454 6.99839 13.7196 7.11958 13.596 7.32473C13.4645 7.54286 13.2624 7.80719 12.9966 8.10811C12.4663 8.70822 11.745 9.38373 11.0044 10.0268C10.2675 10.6666 9.52842 11.2597 8.97221 11.6938Z" fill="#838789"/>
<path d="M1.9722 11.6938C1.6945 11.9105 1.21275 12.2744 1.05138 12.3963C0.717884 12.6419 0.646618 13.1114 0.892244 13.4449C1.13788 13.7785 1.60785 13.8494 1.94138 13.6037L1.94356 13.6021C2.11247 13.4745 2.6115 13.0976 2.89505 12.8763C3.46383 12.4324 4.22473 11.822 4.98782 11.1594C5.74719 10.5001 6.52588 9.77443 7.12063 9.10131C7.41725 8.76561 7.68396 8.42532 7.88059 8.09916C8.06481 7.79358 8.24609 7.40669 8.24609 7.00018C8.2461 6.59367 8.06481 6.20678 7.8806 5.9012C7.68397 5.57503 7.41725 5.23474 7.12063 4.89904C6.52588 4.22592 5.74718 3.50025 4.9878 2.84093C4.2247 2.17838 3.4638 1.56795 2.89501 1.12407C2.61168 0.902958 2.11272 0.526099 1.94343 0.398229L1.94085 0.396282C1.60732 0.150649 1.13783 0.221898 0.892194 0.555421C0.64656 0.888944 0.718497 1.35895 1.05202 1.60458C1.2134 1.72647 1.69446 2.08987 1.97217 2.3066C2.52839 2.74067 3.26749 3.33378 4.00439 3.97359C4.74502 4.61663 5.46632 5.29214 5.99656 5.89225C6.26244 6.19316 6.46447 6.4575 6.59597 6.67563C6.71964 6.88077 6.74536 6.99839 6.74536 6.99839C6.74536 6.99839 6.71964 7.11958 6.59597 7.32473C6.46447 7.54286 6.26244 7.8072 5.99656 8.10811C5.46631 8.70822 4.74502 9.38373 4.0044 10.0268C3.26751 10.6666 2.52842 11.2597 1.9722 11.6938Z" fill="#838789"/>
</svg>
