<svg width="81" height="80" viewBox="0 0 81 80" fill="none" xmlns="http://www.w3.org/2000/svg">
<path d="M79.9765 54.7319L73.204 29.4281C73.1669 29.2893 73.1027 29.1592 73.0153 29.0451C72.9278 28.9311 72.8188 28.8354 72.6943 28.7636C72.5699 28.6917 72.4325 28.6451 72.29 28.6264C72.1476 28.6076 72.0028 28.6171 71.864 28.6544L62.359 31.2013C62.2202 31.2384 62.0902 31.3026 61.9762 31.39C61.8622 31.4774 61.7666 31.5865 61.6948 31.7109C61.623 31.8353 61.5764 31.9726 61.5576 32.1151C61.5389 32.2575 61.5484 32.4022 61.5856 32.5409L61.8529 33.5392C61.2962 33.4289 60.7164 33.3097 60.1198 33.187C53.9115 31.9095 46.1849 30.3197 42.1354 33.8934L41.0142 34.8886C36.6598 31.4527 27.1028 32.6909 20.0043 33.6105C19.6951 33.6505 19.3949 33.6886 19.0981 33.7273L19.4157 32.5408C19.4529 32.402 19.4624 32.2573 19.4436 32.1149C19.4248 31.9725 19.3782 31.8352 19.3064 31.7108C19.2345 31.5864 19.1389 31.4774 19.0249 31.39C18.911 31.3025 18.7809 31.2384 18.6421 31.2013L9.14213 28.6544C9.00336 28.6172 8.85862 28.6077 8.71617 28.6264C8.57372 28.6451 8.43637 28.6918 8.31194 28.7636C8.18752 28.8354 8.07847 28.9311 7.99102 29.0451C7.90357 29.1591 7.83944 29.2892 7.80229 29.428L1.02557 54.7273C0.988378 54.8661 0.978887 55.0108 0.997639 55.1533C1.01639 55.2957 1.06302 55.433 1.13485 55.5574C1.20669 55.6818 1.30233 55.7909 1.41632 55.8783C1.5303 55.9658 1.66039 56.0299 1.79916 56.067L11.304 58.6139C11.4428 58.6512 11.5876 58.6607 11.7301 58.642C11.8726 58.6232 12.01 58.5766 12.1344 58.5048C12.2589 58.4329 12.368 58.3372 12.4554 58.2232C12.5429 58.1091 12.607 57.979 12.6442 57.8402L13.0946 56.1573L17.9454 57.548L19.5443 58.8884C19.0069 59.5566 18.6694 60.3632 18.5707 61.215C18.472 62.0668 18.6163 62.9292 18.9867 63.7025C19.3572 64.4759 19.9388 65.1287 20.6644 65.5856C21.3901 66.0426 22.2301 66.285 23.0876 66.285C23.1754 66.285 23.2632 66.2817 23.3509 66.2766C23.3323 66.4602 23.3247 66.6448 23.3282 66.8294C23.3533 68.0192 23.8438 69.1517 24.6944 69.984C25.545 70.8163 26.688 71.2821 27.8781 71.2812C28.0239 71.2812 28.17 71.2742 28.3163 71.2602C28.3088 71.3875 28.3057 71.5158 28.309 71.6448C28.3402 72.8306 28.8328 73.9574 29.6819 74.7856C30.531 75.6139 31.6697 76.0782 32.8559 76.0798C32.8953 76.0798 32.934 76.0798 32.9743 76.0783C33.3662 76.0683 33.7551 76.0081 34.1317 75.8991C34.2303 76.958 34.6981 77.9486 35.4533 78.6975C36.2084 79.4465 37.2029 79.9061 38.2626 79.9959C38.2924 79.9983 38.3226 79.9997 38.3528 79.9997H38.9595C38.9915 79.9997 39.0232 79.9981 39.0549 79.9955C40.1582 79.8987 41.1887 79.4046 41.9548 78.6048L42.6009 77.9314C43.2103 78.1989 43.8681 78.3387 44.5337 78.3422C45.1128 78.3461 45.6868 78.2348 46.2225 78.0149C46.7582 77.7949 47.2448 77.4707 47.654 77.0609C48.0834 76.629 48.4218 76.1152 48.649 75.5501C48.8763 74.985 48.9879 74.3801 48.9771 73.7711C49.6077 73.8549 50.2488 73.8057 50.8592 73.6265C51.4696 73.4473 52.0356 73.1423 52.5208 72.7309C53.0061 72.3196 53.3997 71.8111 53.6764 71.2383C53.953 70.6655 54.1066 70.0411 54.1271 69.4053C54.7849 69.5303 55.4622 69.5081 56.1103 69.3402C56.7584 69.1722 57.3613 68.8628 57.8756 68.4341C58.3898 68.0054 58.8028 67.4682 59.0847 66.8609C59.3666 66.2536 59.5104 65.5914 59.5059 64.9219C60.3087 65.0406 61.1287 64.9424 61.8808 64.6374C62.6329 64.3324 63.2897 63.8317 63.7831 63.1874C64.2765 62.543 64.5885 61.7783 64.6868 60.9727C64.785 60.1671 64.666 59.3499 64.342 58.6058L67.9557 56.3208L68.362 57.8397C68.399 57.9785 68.463 58.1087 68.5504 58.2228C68.6378 58.3368 68.7468 58.4325 68.8712 58.5044C68.9957 58.5763 69.133 58.6229 69.2755 58.6416C69.418 58.6603 69.5627 58.6508 69.7015 58.6134L79.2015 56.0711C79.3403 56.034 79.4705 55.9699 79.5845 55.8825C79.6986 55.795 79.7943 55.686 79.8662 55.5616C79.9381 55.4371 79.9847 55.2998 80.0035 55.1573C80.0223 55.0148 80.0128 54.8701 79.9756 54.7313L79.9765 54.7319ZM11.2857 54.4531C11.2809 54.4677 11.2753 54.4816 11.2709 54.4964C11.2621 54.5277 11.2553 54.5581 11.2495 54.5891L10.8134 56.2173L3.42276 54.2367L9.6326 31.0511L17.0199 33.0312L16.579 34.6787C16.5682 34.7127 16.559 34.7469 16.5515 34.7819L11.2857 54.4531ZM24.7885 63.3784C24.3547 63.8253 23.7618 64.0826 23.1391 64.0944C22.5164 64.1062 21.9143 63.8715 21.4638 63.4415C21.0133 63.0114 20.7509 62.4208 20.7338 61.7982C20.7168 61.1756 20.9464 60.5715 21.3726 60.1173L23.0478 58.3717C23.4817 57.9206 24.077 57.66 24.7028 57.6471C25.3287 57.6342 25.9342 57.8701 26.3863 58.303C26.6101 58.5176 26.7893 58.7743 26.9137 59.0582C27.0381 59.3422 27.1053 59.6479 27.1114 59.9579C27.1175 60.2679 27.0624 60.576 26.9493 60.8647C26.8362 61.1534 26.6672 61.4169 26.4521 61.6402C26.4349 61.6578 26.4198 61.6766 26.4042 61.6953L24.796 63.3719C24.7932 63.3741 24.7907 63.3759 24.7885 63.3783V63.3784ZM29.5815 68.3695C29.1463 68.8168 28.5519 69.0737 27.9279 69.0843C27.3039 69.0948 26.7012 68.8581 26.2511 68.4257C25.8011 67.9934 25.5404 67.4006 25.5259 66.7767C25.5113 66.1528 25.7442 65.5486 26.1737 65.0958L28.6696 62.4936C28.8838 62.2704 29.1401 62.0919 29.4238 61.9685C29.7075 61.8451 30.0128 61.7793 30.3221 61.7748H30.3638C30.8255 61.7751 31.2769 61.9105 31.6624 62.1644C32.0479 62.4183 32.3505 62.7796 32.533 63.2036C32.7155 63.6276 32.7698 64.0957 32.6892 64.5502C32.6086 65.0048 32.3966 65.4257 32.0795 65.7611L29.5815 68.3695ZM35.454 72.228L35.3645 72.3217C35.3621 72.3239 35.3598 72.3259 35.3574 72.3283C35.3551 72.3306 35.3501 72.3367 35.3462 72.3408C35.0885 72.612 34.8306 72.8833 34.5692 73.1566C34.3561 73.3837 34.1002 73.5665 33.8162 73.6944C33.5321 73.8223 33.2256 73.8927 32.9143 73.9016C32.6029 73.9106 32.2929 73.8578 32.002 73.7465C31.7111 73.6351 31.4452 73.4673 31.2194 73.2527C30.9937 73.0381 30.8126 72.7809 30.6866 72.4961C30.5606 72.2112 30.4923 71.9042 30.4854 71.5928C30.4786 71.2814 30.5334 70.9718 30.6467 70.6816C30.76 70.3915 30.9296 70.1267 31.1457 69.9023C31.1565 69.8909 31.1659 69.8789 31.176 69.8672L33.6617 67.2714L33.6626 67.2705C34.0929 66.8147 34.6867 66.5485 35.3133 66.5305C35.9399 66.5125 36.5479 66.7442 37.0037 67.1745C37.4595 67.6049 37.7256 68.1986 37.7436 68.8252C37.7616 69.4518 37.53 70.0598 37.0996 70.5156C36.5438 71.0802 35.9899 71.6637 35.454 72.228ZM42.0496 75.3448L41.6209 75.7917C41.6104 75.802 41.6006 75.8128 41.5906 75.823L40.3749 77.09C39.9864 77.4967 39.4664 77.7527 38.9071 77.8125H38.4024C37.9648 77.7658 37.5489 77.5977 37.2017 77.3272C36.8546 77.0566 36.59 76.6944 36.4379 76.2814C36.2857 75.8684 36.2521 75.4211 36.3407 74.99C36.4294 74.5589 36.6368 74.1611 36.9396 73.8417C36.9735 73.8061 37.0076 73.7706 37.0413 73.735C37.5498 73.1992 38.0748 72.6469 38.596 72.1158C38.6099 72.1027 38.6245 72.0903 38.6379 72.0762C39.0721 71.6249 39.6677 71.3643 40.2938 71.3517C40.92 71.339 41.5256 71.5752 41.9778 72.0086C42.2018 72.2228 42.3815 72.4791 42.5064 72.7628C42.6313 73.0466 42.699 73.3521 42.7058 73.662C42.7125 73.972 42.658 74.2802 42.5455 74.569C42.433 74.8579 42.2647 75.1217 42.0501 75.3455L42.0496 75.3448ZM61.8199 62.1119C61.3728 62.5486 60.7707 62.7901 60.1457 62.7835C59.5207 62.7769 58.9239 62.5227 58.486 62.0767L58.4815 62.0725C58.4799 62.0709 58.4787 62.0692 58.4771 62.0677L51.7403 55.3308C51.6387 55.2292 51.5181 55.1486 51.3854 55.0937C51.2527 55.0387 51.1105 55.0104 50.9668 55.0104C50.8232 55.0104 50.6809 55.0387 50.5482 55.0937C50.4155 55.1486 50.295 55.2292 50.1934 55.3308C50.0918 55.4324 50.0112 55.5529 49.9563 55.6856C49.9013 55.8183 49.873 55.9606 49.873 56.1042C49.873 56.2479 49.9013 56.3901 49.9563 56.5228C50.0112 56.6555 50.0918 56.7761 50.1934 56.8777L56.8665 63.5508C57.2175 64.0296 57.3747 64.6234 57.3066 65.2132C57.2385 65.803 56.9502 66.3454 56.4994 66.7317C56.0485 67.118 55.4684 67.3198 54.8751 67.2967C54.2819 67.2736 53.7192 67.0273 53.2998 66.607L53.0871 66.3945L46.8818 60.1891C46.6767 59.9839 46.3985 59.8687 46.1084 59.8687C45.8183 59.8687 45.5401 59.9839 45.3349 60.1891C45.1298 60.3942 45.0146 60.6724 45.0146 60.9625C45.0146 61.2526 45.1298 61.5308 45.3349 61.7359L51.4768 67.8777C51.8257 68.354 51.9831 68.944 51.9177 69.5308C51.8522 70.1176 51.5688 70.6584 51.1236 71.0462C50.6783 71.434 50.1037 71.6405 49.5135 71.6247C48.9232 71.6089 48.3604 71.3721 47.9365 70.9611C47.9005 70.9268 47.8622 70.895 47.8218 70.8659C47.7859 70.8142 47.7456 70.7657 47.7014 70.7209L42.0231 65.0473C41.9214 64.9458 41.8008 64.8652 41.668 64.8103C41.5353 64.7553 41.393 64.7271 41.2493 64.7271C41.1056 64.7272 40.9633 64.7555 40.8306 64.8105C40.6979 64.8655 40.5773 64.9462 40.4757 65.0478C40.3742 65.1494 40.2936 65.2701 40.2387 65.4028C40.1837 65.5356 40.1554 65.6779 40.1555 65.8216C40.1555 65.9653 40.1839 66.1075 40.2389 66.2403C40.2939 66.373 40.3746 66.4936 40.4762 66.5952L46.1543 72.2689C46.1941 72.3081 46.2368 72.3441 46.2821 72.3767C46.2909 72.3891 46.2985 72.4017 46.3078 72.4137C46.654 72.8681 46.8242 73.4324 46.7869 74.0024C46.7495 74.5724 46.5072 75.1097 46.1046 75.515C45.8594 75.7623 45.5585 75.9472 45.227 76.054C44.8955 76.1608 44.5433 76.1865 44.1998 76.1289C44.6508 75.4095 44.8914 74.5781 44.8945 73.729C44.8975 72.8799 44.6629 72.0469 44.2171 71.3242C43.7713 70.6015 43.1322 70.018 42.372 69.6397C41.6118 69.2614 40.7609 69.1034 39.9156 69.1836C39.9584 68.5233 39.8565 67.8616 39.6167 67.2448C39.377 66.628 39.0054 66.0711 38.5278 65.6131C38.0503 65.155 37.4784 64.8069 36.8522 64.5931C36.2259 64.3793 35.5606 64.305 34.9026 64.3753C34.9404 63.6675 34.8123 62.9607 34.5283 62.3112C34.2444 61.6617 33.8126 61.0876 33.2673 60.6348C32.722 60.1819 32.0784 59.8628 31.3878 59.7029C30.6973 59.543 29.9789 59.5468 29.2901 59.7139C29.2338 58.8327 28.9221 57.987 28.3933 57.28C27.8644 56.5729 27.1412 56.0351 26.3118 55.7321C25.4825 55.4292 24.5828 55.3742 23.7228 55.5738C22.8627 55.7735 22.0793 56.2192 21.4682 56.8566L21.0488 57.2941L19.1738 55.7219C19.0565 55.6235 18.9198 55.5508 18.7726 55.5086L13.6612 54.0428L18.4885 36.0094C19.0573 35.9389 19.6585 35.8612 20.2865 35.7798C26.099 35.0264 35.5331 33.8044 39.3646 36.3906L29.4457 45.4748C28.4597 46.364 27.8672 47.6084 27.7986 48.9344C27.7301 50.2604 28.1911 51.5592 29.0803 52.5453C29.9694 53.5314 31.2138 54.1239 32.5398 54.1924C33.8658 54.2609 35.1647 53.7999 36.1507 52.9108C36.1626 52.9002 36.1742 52.8892 36.1854 52.8781L46.1884 43.1061L61.8329 58.7509C61.8515 58.7695 61.8681 58.7878 61.8849 58.8058C61.8932 58.8155 61.9006 58.8255 61.9092 58.8348C62.3198 59.2871 62.5398 59.8805 62.5233 60.4912C62.5068 61.1018 62.2549 61.6825 61.8204 62.1119H61.8199ZM63.0256 56.8497L46.9707 40.7942C46.7671 40.5905 46.4915 40.4754 46.2035 40.4737C45.9155 40.472 45.6385 40.584 45.4326 40.7853L34.6746 51.2955C34.1154 51.7804 33.3877 52.0259 32.649 51.9788C31.9102 51.9317 31.2196 51.5959 30.7265 51.0438C30.2333 50.4917 29.9771 49.7678 30.0133 49.0284C30.0496 48.289 30.3752 47.5936 30.9199 47.0923L42.1771 36.7812L43.5856 35.5312C46.8142 32.6822 54.2499 34.212 59.6793 35.3294C60.6651 35.5325 61.6067 35.7255 62.4826 35.8872L67.3631 54.107L63.0256 56.8497ZM70.1924 56.2177L64.4268 34.6908C64.4235 34.6752 64.4192 34.6614 64.4151 34.6467L63.9823 33.0312L71.3729 31.0508L77.5793 54.2408L70.1924 56.2177ZM20.7115 24.0948H24.324C24.2747 24.3905 24.2501 24.6898 24.2504 24.9895C24.2514 25.7227 24.4045 26.4477 24.7001 27.1187C24.9956 27.7896 25.4272 28.392 25.9675 28.8876C26.5078 29.3832 27.145 29.7613 27.8389 29.998C28.5328 30.2348 29.2683 30.3249 29.9988 30.2628C30.7294 30.2007 31.4391 29.9877 32.0831 29.6372C32.7271 29.2868 33.2913 28.8065 33.7402 28.2268C34.1891 27.6471 34.5128 26.9805 34.6908 26.2693C34.8689 25.5581 34.8974 24.8177 34.7746 24.0948H38.384C39.1705 24.0925 39.9274 23.7944 40.5043 23.2598C41.0658 23.7227 41.771 23.9756 42.4987 23.9752H47.5924C47.7768 23.9752 47.9582 23.9287 48.1198 23.8398C48.2814 23.751 48.4179 23.6227 48.5166 23.467C48.6153 23.3113 48.673 23.1331 48.6845 22.9491C48.6959 22.765 48.6605 22.5811 48.5818 22.4144C48.3819 21.9926 48.2795 21.5312 48.282 21.0644C48.2846 20.5976 48.3921 20.1374 48.5967 19.7178C48.8012 19.2983 49.0975 18.9301 49.4636 18.6405C49.8297 18.351 50.2563 18.1475 50.7117 18.0451C51.1671 17.9427 51.6397 17.9441 52.0945 18.0492C52.5494 18.1542 52.9747 18.3602 53.3391 18.652C53.7035 18.9437 53.9976 19.3136 54.1997 19.7344C54.4017 20.1552 54.5065 20.616 54.5064 21.0828C54.5091 21.5411 54.4082 21.9941 54.211 22.4078C54.1309 22.5746 54.0944 22.7589 54.105 22.9437C54.1155 23.1284 54.1727 23.3074 54.2713 23.464C54.3698 23.6206 54.5065 23.7496 54.6684 23.839C54.8304 23.9284 55.0124 23.9752 55.1974 23.9752H60.2912C61.1273 23.9744 61.929 23.6419 62.5202 23.0507C63.1115 22.4594 63.4439 21.6577 63.4446 20.8216V3.15359C63.4439 2.31737 63.1114 1.5156 62.5201 0.924333C61.9287 0.333063 61.1269 0.00062078 60.2907 1.17401e-07H55.197C55.012 -8.55946e-05 54.8299 0.0467624 54.668 0.136161C54.506 0.22556 54.3693 0.354587 54.2708 0.511172C54.1722 0.667756 54.115 0.84678 54.1045 1.03149C54.094 1.21621 54.1305 1.40057 54.2106 1.56734C54.4077 1.98102 54.5087 2.43395 54.5059 2.89219C54.5056 3.35856 54.4004 3.81891 54.1982 4.23917C53.996 4.65943 53.7019 5.02885 53.3377 5.32012C52.9734 5.61139 52.5484 5.81705 52.0939 5.9219C51.6395 6.02674 51.1673 6.02808 50.7123 5.92583C50.2572 5.82357 49.831 5.62033 49.4651 5.33113C49.0992 5.04194 48.8031 4.67419 48.5985 4.25509C48.3939 3.83599 48.2861 3.37625 48.2831 2.90988C48.2802 2.44352 48.3821 1.98245 48.5814 1.56078C48.6601 1.39406 48.6954 1.21015 48.684 1.02613C48.6726 0.842111 48.6149 0.663959 48.5162 0.508231C48.4175 0.352503 48.281 0.224252 48.1194 0.135398C47.9579 0.0465427 47.7765 -3.2508e-05 47.5921 1.17401e-07H42.4984C41.7406 0.000111245 41.0087 0.275151 40.4384 0.774063C39.8693 0.276709 39.1396 0.0018003 38.3839 1.17401e-07H20.712C19.8764 0.00153097 19.0756 0.33441 18.4852 0.925613C17.8948 1.51682 17.563 2.31807 17.5626 3.15359V20.9456C17.5636 21.7805 17.8957 22.5809 18.486 23.1713C19.0763 23.7616 19.8766 24.0938 20.7115 24.0948ZM41.0076 9.21547C41.1693 9.1182 41.3031 8.98075 41.396 8.81647C41.4889 8.65219 41.5376 8.46668 41.5376 8.27797V3.15297C41.5373 2.89761 41.6383 2.65255 41.8185 2.47156C41.9986 2.29057 42.2432 2.18841 42.4985 2.1875H46.1415C46.1105 2.42091 46.0948 2.6561 46.0946 2.89156C46.0946 4.29709 46.653 5.64504 47.6468 6.6389C48.6407 7.63275 49.9886 8.19109 51.3942 8.19109C52.7997 8.19109 54.1476 7.63275 55.1415 6.6389C56.1354 5.64504 56.6937 4.29709 56.6937 2.89156C56.694 2.65615 56.6789 2.42097 56.6487 2.1875H60.2907C60.5467 2.18779 60.7921 2.28961 60.973 2.47061C61.154 2.65161 61.2558 2.89701 61.256 3.15297V20.8216C61.2558 21.0775 61.154 21.3229 60.973 21.5039C60.7921 21.6849 60.5467 21.7867 60.2907 21.787H56.6487C56.6791 21.5535 56.6943 21.3183 56.6942 21.0828C56.6942 19.6773 56.1358 18.3293 55.142 17.3355C54.1481 16.3416 52.8002 15.7833 51.3946 15.7833C49.9891 15.7833 48.6412 16.3416 47.6473 17.3355C46.6534 18.3293 46.0951 19.6773 46.0951 21.0828C46.0953 21.3183 46.1109 21.5536 46.142 21.787H42.4985C42.2432 21.7862 41.9986 21.684 41.8184 21.503C41.6383 21.322 41.5373 21.0769 41.5376 20.8216V15.6966C41.5377 15.5078 41.489 15.3223 41.3961 15.158C41.3033 14.9937 41.1695 14.8562 41.0078 14.7589C40.8461 14.6616 40.662 14.6077 40.4733 14.6027C40.2847 14.5976 40.0979 14.6414 39.9312 14.7298C39.4764 14.971 38.9696 15.0975 38.4548 15.0986C37.6334 15.0928 36.8476 14.7624 36.2688 14.1795C35.6901 13.5966 35.3653 12.8085 35.3653 11.9871C35.3653 11.1657 35.6901 10.3776 36.2688 9.79471C36.8476 9.21183 37.6334 8.88145 38.4548 8.87563C38.9696 8.87667 39.4764 9.00325 39.9312 9.24438C40.0979 9.33281 40.2846 9.37663 40.4732 9.37156C40.6618 9.3665 40.8459 9.31272 41.0076 9.21547ZM19.7509 3.15359C19.7504 2.89816 19.8513 2.65297 20.0314 2.47184C20.2115 2.29072 20.4561 2.18845 20.7115 2.1875H38.3834C38.6342 2.18826 38.8749 2.28669 39.0543 2.46191C39.2338 2.63712 39.338 2.87536 39.3448 3.12609C39.3448 3.14578 39.3476 3.165 39.349 3.18453V6.76437C38.5882 6.63371 37.8081 6.6708 37.0632 6.87306C36.3183 7.07532 35.6265 7.43787 35.0363 7.93535C34.4461 8.43282 33.9717 9.05322 33.6463 9.75316C33.3208 10.4531 33.1522 11.2157 33.1522 11.9876C33.1522 12.7595 33.3208 13.5221 33.6463 14.222C33.9717 14.9219 34.4461 15.5423 35.0363 16.0398C35.6265 16.5373 36.3183 16.8998 37.0632 17.1021C37.8081 17.3044 38.5882 17.3414 39.349 17.2108V20.8216C39.349 20.8398 39.3513 20.8573 39.3517 20.8755C39.3484 20.9067 39.3456 20.9369 39.3448 20.9681C39.3373 21.2186 39.2329 21.4564 39.0535 21.6315C38.8742 21.8065 38.634 21.9052 38.3834 21.9067H33.2548C33.0656 21.9066 32.8796 21.9557 32.7149 22.049C32.5503 22.1423 32.4127 22.2767 32.3156 22.4391C32.2185 22.6015 32.1652 22.7864 32.1609 22.9755C32.1566 23.1647 32.2014 23.3518 32.291 23.5184C32.5353 23.9702 32.6626 24.4759 32.6612 24.9895C32.6554 25.8109 32.325 26.5966 31.7422 27.1754C31.1593 27.7541 30.3712 28.0789 29.5499 28.0789C28.7285 28.0789 27.9404 27.7541 27.3576 27.1754C26.7747 26.5966 26.4444 25.8109 26.4385 24.9895C26.4357 24.4763 26.5615 23.9706 26.8043 23.5184C26.8939 23.3518 26.9388 23.1647 26.9345 22.9755C26.9301 22.7864 26.8768 22.6015 26.7797 22.4391C26.6826 22.2767 26.545 22.1423 26.3804 22.049C26.2158 21.9557 26.0298 21.9066 25.8406 21.9067H20.7115C20.4576 21.9034 20.2151 21.8011 20.0356 21.6216C19.8561 21.442 19.7537 21.1995 19.7504 20.9456L19.7509 3.15359Z" fill="#4D98E2"/>
</svg>
