<svg width="23" height="23" viewBox="0 0 23 23" fill="none" xmlns="http://www.w3.org/2000/svg">
<path d="M11.2053 22.0417C10.8276 22.0427 10.4535 21.9688 10.1046 21.8242C9.7557 21.6796 9.43894 21.4672 9.17267 21.1994L5.92679 17.9209C5.82454 17.8352 5.74131 17.7291 5.68242 17.6094C5.62353 17.4897 5.59028 17.3591 5.58479 17.2258C5.57931 17.0925 5.60171 16.9595 5.65057 16.8354C5.69943 16.7112 5.77367 16.5987 5.86853 16.5049C5.9634 16.4111 6.0768 16.3381 6.20148 16.2907C6.32616 16.2433 6.45937 16.2224 6.59259 16.2294C6.72581 16.2364 6.8561 16.2711 6.97512 16.3313C7.09414 16.3916 7.19928 16.476 7.28379 16.5792L10.5268 19.851C10.7093 20.0242 10.9513 20.1207 11.2029 20.1207C11.4545 20.1207 11.6965 20.0242 11.879 19.851L17.0674 14.6626C17.2471 14.4827 17.4909 14.3817 17.7451 14.3816C17.9993 14.3815 18.2432 14.4824 18.423 14.6621C18.6028 14.8418 18.7039 15.0856 18.704 15.3398C18.7041 15.594 18.6032 15.8378 18.4235 16.0176L13.2341 21.2061C12.9678 21.4724 12.6515 21.6834 12.3033 21.8268C11.9551 21.9702 11.5819 22.0433 11.2053 22.0417ZM6.70879 21.0834C6.70879 20.8292 6.60783 20.5855 6.4281 20.4058C6.24838 20.226 6.00462 20.1251 5.75046 20.1251H5.44667C4.62821 20.1094 3.83877 19.8191 3.20512 19.3008C2.57146 18.7826 2.13034 18.0664 1.95258 17.2673C1.84846 16.5806 1.96208 15.8785 2.2775 15.2597C2.59291 14.6409 3.09427 14.1365 3.71113 13.8173C4.15051 13.5741 4.47648 13.1676 4.61852 12.6859C4.76056 12.2042 4.70725 11.6859 4.47013 11.2432C4.09801 10.5335 3.87835 9.7539 3.82522 8.95434C3.77209 8.15477 3.88668 7.35292 4.16162 6.60024C4.43657 5.84755 4.8658 5.16064 5.42179 4.58357C5.97778 4.00651 6.64825 3.55202 7.39019 3.24928C8.13213 2.94653 8.92916 2.80221 9.73015 2.82556C10.5311 2.84891 11.3184 3.03943 12.0415 3.3849C12.7645 3.73036 13.4073 4.22313 13.9288 4.83161C14.4502 5.4401 14.8387 6.15085 15.0693 6.91827C15.2109 7.38094 15.4634 7.80201 15.8047 8.1449C16.1461 8.48778 16.5661 8.7421 17.0281 8.88573C18.2803 9.26652 19.3642 10.0651 20.0989 11.1482C20.8336 12.2314 21.1748 13.5337 21.0656 14.8379C20.9552 15.9707 20.5024 17.043 19.7675 17.9121C19.0325 18.7811 18.0502 19.4056 16.9515 19.7024C16.713 19.7841 16.5162 19.9564 16.4039 20.1821C16.2916 20.4078 16.2727 20.6686 16.3513 20.9081C16.43 21.1477 16.5999 21.3465 16.8241 21.4617C17.0484 21.5768 17.309 21.5989 17.5495 21.5233C19.1199 21.0751 20.5021 20.1286 21.4877 18.8264C22.4732 17.5242 23.0088 15.9368 23.0135 14.3037C23.0183 12.6706 22.492 11.0802 21.514 9.77224C20.5361 8.46431 19.1594 7.50974 17.5916 7.05244C17.4272 7.00119 17.2779 6.91006 17.1572 6.78717C17.0365 6.66427 16.948 6.51342 16.8997 6.34807C16.3926 4.71854 15.3563 3.30479 13.9549 2.33077C12.5536 1.35675 10.8673 0.878148 9.16319 0.970779C7.45909 1.06341 5.83462 1.72198 4.5471 2.84216C3.25957 3.96234 2.38261 5.48009 2.05513 7.15498C1.71832 8.84836 1.98981 10.6063 2.82179 12.1191C1.85174 12.6193 1.06301 13.4112 0.566675 14.3832C0.0703438 15.3553 -0.108585 16.4585 0.0550841 17.5376C0.304875 18.7909 0.975864 19.9211 1.95663 20.7404C2.93739 21.5597 4.1689 22.0189 5.44667 22.0417H5.75046C6.00462 22.0417 6.24838 21.9408 6.4281 21.761C6.60783 21.5813 6.70879 21.3376 6.70879 21.0834Z" fill="black"/>
</svg>
