<svg width="65" height="80" viewBox="0 0 65 80" fill="none" xmlns="http://www.w3.org/2000/svg">
<path fill-rule="evenodd" clip-rule="evenodd" d="M30.638 33.4084C31.0841 33.9572 31.9025 34.0172 32.4216 33.5359L41.1155 25.4831C41.6093 25.0268 41.6346 24.2603 41.1761 23.7701C40.7157 23.2807 39.9439 23.2546 39.4513 23.7107L31.7184 30.8733L28.1453 26.4567C27.7232 25.9354 26.9552 25.8518 26.4301 26.2719C25.9042 26.6912 25.821 27.4538 26.2431 27.9753L30.638 33.4084ZM19.3297 27.4617C19.3297 19.8622 25.5553 13.6802 33.2062 13.6802C40.8571 13.6802 47.0817 19.8622 47.0817 27.4617C47.0817 32.2196 44.6604 36.5786 40.6053 39.1225C39.1762 40.0185 38.3055 41.3386 38.1546 42.8385L37.9999 44.3737H28.5244L28.2471 42.7568C27.9836 41.214 27.1413 39.9571 25.8082 39.1225C21.7529 36.5786 19.3297 32.2196 19.3297 27.4617ZM37.6599 46.7978H28.7143V48.8358H37.6599V46.7978ZM35.7107 51.2601H30.7017C30.7263 52.6121 31.8388 53.7058 33.2062 53.7058C34.5745 53.7056 35.6873 52.6121 35.7107 51.2601ZM16.8889 27.4617C16.8889 18.5257 24.2087 11.2561 33.2062 11.2561C42.2027 11.2561 49.5225 18.5257 49.5225 27.4617C49.5225 33.0563 46.677 38.1818 41.909 41.1723C41.1068 41.6751 40.6601 42.3172 40.5839 43.0799L40.101 47.8777V50.048C40.101 50.7172 39.5544 51.2601 38.8805 51.2601H38.1527C38.1283 53.9498 35.9204 56.1299 33.2062 56.1299C30.4929 56.1299 28.2852 53.9498 28.2608 51.2601H27.4939C26.8182 51.2601 26.2735 50.7172 26.2735 50.048V45.688L25.8405 43.1627C25.6926 42.2941 25.2548 41.6432 24.5045 41.1724C19.7362 38.1818 16.8889 33.0563 16.8889 27.4617ZM16.5764 12.6608C17.0537 13.1331 17.8284 13.1331 18.3033 12.6608C18.7793 12.187 18.7793 11.4195 18.3033 10.9459L15.3806 8.04311C14.9035 7.57025 14.1307 7.57025 13.6538 8.04311C13.1768 8.51694 13.1768 9.28441 13.6538 9.75804L16.5764 12.6608ZM6.77652 28.6738H10.91C11.5838 28.6738 12.1304 28.1309 12.1304 27.4617C12.1304 26.7925 11.5838 26.2496 10.91 26.2496H6.77652C6.10174 26.2496 5.5561 26.7925 5.5561 27.4617C5.5561 28.1311 6.10174 28.6738 6.77652 28.6738ZM14.5174 47.2347C14.8299 47.2347 15.1422 47.117 15.3804 46.8797L18.3031 43.9769C18.7791 43.5041 18.7791 42.7366 18.3031 42.2628C17.8261 41.7901 17.0533 41.7901 16.5762 42.2628L13.6535 45.1655C12.8826 45.9311 13.4383 47.2347 14.5174 47.2347ZM61.6937 57.4342L61.5615 57.2746C61.052 56.6608 60.2098 56.5052 59.5114 56.8952C53.6223 60.1876 46.6944 64.1066 42.2391 65.5862C41.0764 65.9723 39.8473 66.2283 38.5738 66.3537C37.6218 68.069 35.5942 68.8707 33.6176 68.4578C31.6568 68.0484 28.9256 67.3373 27.1804 67.1729C26.5153 67.1106 25.8473 67.129 25.1344 67.2311C24.4654 67.3265 23.8474 66.8663 23.7513 66.2039C23.6553 65.5414 24.1186 64.9266 24.7857 64.8312C25.6936 64.7018 26.5537 64.6785 27.4118 64.7591C29.3401 64.941 32.0441 65.6512 34.1203 66.085C36.0045 66.4787 37.1943 64.8341 36.4329 63.4234C36.1919 62.9788 35.7953 62.655 35.3134 62.5109L25.1247 59.4593C22.6132 58.7094 20.6876 59.6686 18.4544 60.7804C17.2123 61.3991 15.9282 62.0392 14.4493 62.439C12.5622 62.9498 10.6775 63.3703 8.79466 63.8117V75.419C13.7973 75.336 19.4333 75.316 24.3146 76.0154C27.571 76.4819 31.0115 77.6963 34.1319 77.4443C37.9157 77.1378 41.9932 74.8052 45.8369 72.3303C51.0262 68.9878 57.3596 63.5782 61.5566 59.6295C62.1735 59.0501 62.2333 58.0852 61.6937 57.4342ZM6.35345 62.4898C6.35345 62.2106 6.11645 61.9752 5.83628 61.9752H3.45916C3.17705 61.9752 2.94102 62.2106 2.94102 62.4898V77.0622C2.94102 77.3405 3.17705 77.5768 3.45916 77.5768H5.83628C6.11645 77.5768 6.35345 77.3405 6.35345 77.0622V62.4898ZM63.2363 61.3896C64.7789 59.9372 64.9288 57.5227 63.5781 55.8933L63.4458 55.7337C62.1911 54.2211 60.0313 53.8213 58.3132 54.7834C52.5597 58.0042 45.658 61.8975 41.466 63.2875C40.702 63.5403 39.9017 63.7292 39.0771 63.8517C38.8863 62.1444 37.694 60.6922 36.0172 60.1901L25.8276 57.1395C22.3886 56.1093 19.8322 57.3827 17.3608 58.6142C16.2246 59.1794 15.0512 59.764 13.8062 60.1007C12.0981 60.5624 10.3375 60.9581 8.5718 61.3731C8.12704 60.3049 7.06928 59.5511 5.83608 59.5511H3.45896C1.82613 59.5511 0.5 60.8693 0.5 62.4898V77.0622C0.5 78.6829 1.82632 80 3.45896 80H5.83608C7.19358 80 8.33674 79.0856 8.68352 77.8453C13.7032 77.772 19.1528 77.7264 23.9655 78.4153C27.0623 78.8585 30.011 79.9037 33.2393 79.9037C38.0075 79.9037 42.7575 77.202 47.1647 74.3647C53.8715 70.0466 61.1618 63.3421 63.2363 61.3896ZM55.5032 28.6738H59.6366C60.3095 28.6738 60.8571 28.1309 60.8571 27.4617C60.8571 26.7925 60.3095 26.2496 59.6366 26.2496H55.5032C54.8294 26.2496 54.2827 26.7925 54.2827 27.4617C54.2827 28.1311 54.8294 28.6738 55.5032 28.6738ZM48.973 13.0148C49.2855 13.0148 49.5978 12.8971 49.835 12.6606L52.7578 9.75785C53.2349 9.28402 53.2349 8.51655 52.7578 8.04292C52.2828 7.57006 51.5099 7.57006 51.033 8.04292L48.11 10.9457C47.3406 11.7101 47.8924 13.0148 48.973 13.0148ZM33.2062 6.52933C33.881 6.52933 34.4266 5.98647 34.4266 5.31727V1.21206C34.4266 0.542861 33.881 0 33.2062 0C32.5324 0 31.9848 0.542861 31.9848 1.21206V5.31727C31.9846 5.98647 32.5322 6.52933 33.2062 6.52933ZM52.7578 45.1655L49.835 42.2628C49.3599 41.7901 48.5871 41.7901 48.1102 42.2628C47.6331 42.7366 47.6331 43.5041 48.1102 43.9769L51.033 46.8797C51.2709 47.117 51.5834 47.2347 51.895 47.2347C52.9742 47.2347 53.5276 45.9301 52.7578 45.1655Z" fill="#4D98E2"/>
</svg>
