<svg width="20" height="20" viewBox="0 0 20 20" fill="none" xmlns="http://www.w3.org/2000/svg">
<g clip-path="url(#clip0_1702_6002)">
<g clip-path="url(#clip1_1702_6002)">
<path d="M6.39823 1.52124C5.43767 1.56656 4.78171 1.71985 4.20827 1.94518C3.61478 2.17647 3.11175 2.48685 2.61125 2.98915C2.11075 3.49146 1.80254 3.99485 1.57288 4.58924C1.35061 5.16394 1.20003 5.82044 1.1576 6.78154C1.11517 7.74264 1.10578 8.05157 1.11047 10.5031C1.11517 12.9547 1.126 13.262 1.17258 14.2251C1.21845 15.1855 1.3712 15.8413 1.59653 16.4149C1.82818 17.0084 2.1382 17.5113 2.64068 18.012C3.14317 18.5126 3.6462 18.8201 4.24203 19.0501C4.8162 19.272 5.47288 19.4233 6.4338 19.4654C7.39471 19.5074 7.704 19.5172 10.1549 19.5125C12.6057 19.5079 12.9143 19.497 13.8772 19.4513C14.8401 19.4056 15.4924 19.2518 16.0663 19.0276C16.6597 18.7954 17.1629 18.4859 17.6633 17.9832C18.1636 17.4806 18.4716 16.9768 18.7011 16.382C18.9236 15.8079 19.0747 15.1512 19.1164 14.191C19.1584 13.2274 19.1683 12.9197 19.1637 10.4685C19.159 8.01726 19.148 7.70996 19.1023 6.74724C19.0566 5.78451 18.9037 5.13072 18.6786 4.55674C18.4465 3.96325 18.1369 3.46076 17.6345 2.95972C17.1322 2.45868 16.6281 2.15083 16.0336 1.92189C15.459 1.69963 14.8027 1.54814 13.8418 1.50661C12.8809 1.46508 12.5716 1.45443 10.1198 1.45913C7.66807 1.46382 7.36113 1.47429 6.39823 1.52124ZM6.50367 17.8413C5.62346 17.803 5.14553 17.6567 4.82703 17.5344C4.40525 17.3719 4.10481 17.1754 3.78739 16.861C3.46998 16.5467 3.27498 16.2452 3.11031 15.8243C2.98663 15.5058 2.83767 15.0284 2.7965 14.1482C2.75173 13.1969 2.74234 12.9113 2.7371 10.501C2.73186 8.09077 2.74107 7.80547 2.78278 6.85376C2.82034 5.97428 2.96749 5.49581 3.08973 5.17749C3.25223 4.75517 3.44795 4.45526 3.76302 4.13803C4.07809 3.82079 4.37871 3.62543 4.79995 3.46076C5.11809 3.33654 5.59548 3.18885 6.47532 3.14696C7.42739 3.10182 7.71267 3.09279 10.1225 3.08756C12.5324 3.08232 12.8184 3.09135 13.7708 3.13324C14.6504 3.17151 15.129 3.31722 15.447 3.44018C15.8689 3.60268 16.1692 3.79786 16.4864 4.11347C16.8036 4.42908 16.9992 4.72863 17.1638 5.15076C17.2883 5.468 17.4359 5.94521 17.4774 6.8256C17.5228 7.77767 17.5331 8.06313 17.5374 10.4729C17.5417 12.8825 17.5333 13.1687 17.4915 14.1201C17.4531 15.0003 17.3072 15.4783 17.1846 15.7972C17.0221 16.2188 16.8262 16.5195 16.511 16.8365C16.1957 17.1535 15.8954 17.3489 15.474 17.5136C15.1563 17.6376 14.6783 17.7857 13.7992 17.8276C12.8471 17.8724 12.5618 17.8817 10.1511 17.887C7.74029 17.8922 7.45574 17.8824 6.50367 17.8413ZM13.8633 5.66083C13.8636 5.87511 13.9275 6.08447 14.0469 6.26244C14.1663 6.4404 14.3357 6.57897 14.5338 6.66062C14.7319 6.74228 14.9498 6.76335 15.1599 6.72117C15.3699 6.67899 15.5628 6.57545 15.714 6.42365C15.8653 6.27186 15.9681 6.07863 16.0095 5.86838C16.0509 5.65815 16.0291 5.44035 15.9467 5.24253C15.8643 5.04473 15.7252 4.87579 15.5467 4.75709C15.3683 4.6384 15.1588 4.57527 14.9445 4.57569C14.6572 4.57627 14.382 4.69091 14.1792 4.8944C13.9765 5.0979 13.8628 5.37358 13.8633 5.66083ZM5.50177 10.4949C5.50682 13.0551 7.5861 15.1259 10.1458 15.121C12.7056 15.1162 14.7778 13.0371 14.7729 10.4768C14.7681 7.91651 12.6882 5.84518 10.1281 5.85024C7.56805 5.85529 5.49689 7.93493 5.50177 10.4949ZM7.12784 10.4916C7.12667 9.8964 7.30201 9.31424 7.6317 8.81869C7.96139 8.3232 8.43064 7.93654 8.98001 7.70768C9.52946 7.47883 10.1345 7.41804 10.7184 7.53299C11.3024 7.64795 11.8392 7.9335 12.2608 8.35355C12.6826 8.77355 12.9702 9.30917 13.0875 9.89272C13.2047 10.4763 13.1463 11.0814 12.9197 11.6317C12.693 12.1821 12.3082 12.6529 11.814 12.9845C11.3198 13.3161 10.7383 13.4938 10.1431 13.4949C9.74793 13.4958 9.3564 13.4188 8.99098 13.2683C8.62557 13.1178 8.29334 12.8967 8.01336 12.6179C7.73336 12.339 7.51104 12.0076 7.3591 11.6428C7.20716 11.278 7.12858 10.8868 7.12784 10.4916Z" fill="#838789"/>
</g>
</g>
<defs>
<clipPath id="clip0_1702_6002">
<rect width="18.0556" height="18.75" fill="white" transform="translate(1.10938 1.11108)"/>
</clipPath>
<clipPath id="clip1_1702_6002">
<rect width="18.0556" height="18.75" fill="white" transform="translate(1.10938 1.11108)"/>
</clipPath>
</defs>
</svg>
