<svg width="18" height="18" viewBox="0 0 18 18" fill="none" xmlns="http://www.w3.org/2000/svg">
<g clip-path="url(#clip0_1702_5984)">
<g clip-path="url(#clip1_1702_5984)">
<path d="M3.91719 17.5543H0.289062V5.8707H3.91719V17.5543ZM2.10117 4.27695C0.941016 4.27695 0 3.31602 0 2.15586C8.3039e-09 1.59859 0.221373 1.06415 0.615419 0.670106C1.00947 0.27606 1.54391 0.0546875 2.10117 0.0546875C2.65844 0.0546875 3.19288 0.27606 3.58692 0.670106C3.98097 1.06415 4.20234 1.59859 4.20234 2.15586C4.20234 3.31602 3.26094 4.27695 2.10117 4.27695ZM17.4961 17.5543H13.8758V11.8668C13.8758 10.5113 13.8484 8.77305 11.9895 8.77305C10.1031 8.77305 9.81406 10.2457 9.81406 11.7691V17.5543H6.18984V5.8707H9.66953V7.46445H9.72031C10.2047 6.54648 11.3879 5.57773 13.1531 5.57773C16.825 5.57773 17.5 7.9957 17.5 11.1363V17.5543H17.4961Z" fill="#838789"/>
</g>
</g>
<defs>
<clipPath id="clip0_1702_5984">
<rect width="17.5" height="17.5" fill="white" transform="translate(0 0.09375)"/>
</clipPath>
<clipPath id="clip1_1702_5984">
<rect width="17.5" height="20" fill="white" transform="translate(0 0.0546875)"/>
</clipPath>
</defs>
</svg>
