<svg width="24" height="22" viewBox="0 0 24 22" fill="none" xmlns="http://www.w3.org/2000/svg">
<path d="M22.204 1.16294C21.061 0.209939 19.564 -0.182061 18.105 0.0819392L14.283 0.776939C13.371 0.943939 12.577 1.41094 12 2.06594C11.422 1.41094 10.629 0.942939 9.715 0.776939L5.894 0.0819392C4.433 -0.182061 2.938 0.209939 1.796 1.16294C0.654 2.11594 0 3.51494 0 5.00194V15.7939C0 18.2109 1.727 20.2799 4.106 20.7129L10.39 21.8559C10.924 21.9529 11.462 22.0019 12 22.0019C12.538 22.0019 13.075 21.9539 13.609 21.8559L19.894 20.7129C22.273 20.2799 23.999 18.2109 23.999 15.7939V5.00094C23.999 3.51394 23.345 2.11494 22.203 1.16294H22.204ZM11 19.9289C10.916 19.9169 10.832 19.9029 10.748 19.8879L4.464 18.7449C3.036 18.4849 2 17.2439 2 15.7929V5.00094C2 4.10894 2.393 3.26994 3.078 2.69794C3.623 2.24294 4.301 2.00094 4.997 2.00094C5.176 2.00094 5.357 2.01694 5.537 2.04994L9.358 2.74494C10.31 2.91794 11.001 3.74594 11.001 4.71294V19.9289H11ZM22 15.7939C22 17.2449 20.964 18.4859 19.537 18.7459L13.252 19.8889C13.168 19.9039 13.084 19.9179 13 19.9299V4.71194C13 3.74494 13.69 2.91794 14.642 2.74394L18.463 2.04894C19.338 1.88794 20.237 2.12494 20.923 2.69694C21.608 3.26894 22 4.10794 22 4.99994V15.7919V15.7939ZM20.207 9.20794L18.914 10.5009L20.207 11.7939C20.598 12.1849 20.598 12.8169 20.207 13.2079C20.012 13.4029 19.756 13.5009 19.5 13.5009C19.244 13.5009 18.988 13.4029 18.793 13.2079L17.5 11.9149L16.207 13.2079C16.012 13.4029 15.756 13.5009 15.5 13.5009C15.244 13.5009 14.988 13.4029 14.793 13.2079C14.402 12.8169 14.402 12.1849 14.793 11.7939L16.086 10.5009L14.793 9.20794C14.402 8.81694 14.402 8.18494 14.793 7.79394C15.184 7.40294 15.816 7.40294 16.207 7.79394L17.5 9.08694L18.793 7.79394C19.184 7.40294 19.816 7.40294 20.207 7.79394C20.598 8.18494 20.598 8.81694 20.207 9.20794ZM9.631 8.80194C10.009 9.18894 10.011 9.80594 9.635 10.1959L7.424 12.3889C6.628 13.2119 5.306 13.2059 4.519 12.3739L3.388 11.1989C3.021 10.8119 3.024 10.2039 3.394 9.81994C3.789 9.40894 4.448 9.41194 4.839 9.82594L5.977 11.0089L8.197 8.80694C8.588 8.40194 9.237 8.39994 9.63 8.80294L9.631 8.80194Z" fill="black"/>
</svg>
