<svg width="20" height="20" viewBox="0 0 20 20" fill="none" xmlns="http://www.w3.org/2000/svg">
<path d="M15.0452 9.78984L11.1476 8.35391L9.70849 4.45312C9.59839 4.15451 9.39938 3.89684 9.13829 3.71484C8.87721 3.53284 8.5666 3.43526 8.24833 3.43526C7.93007 3.43526 7.61946 3.53284 7.35838 3.71484C7.09729 3.89684 6.89828 4.15451 6.78818 4.45312L5.35224 8.35391L1.45146 9.78984C1.15285 9.89995 0.895175 10.099 0.713173 10.36C0.531172 10.6211 0.433594 10.9317 0.433594 11.25C0.433594 11.5683 0.531172 11.8789 0.713173 12.14C0.895175 12.401 1.15285 12.6001 1.45146 12.7102L5.34912 14.1461L6.78818 18.0469C6.89828 18.3455 7.09729 18.6032 7.35838 18.7852C7.61946 18.9672 7.93007 19.0647 8.24833 19.0647C8.5666 19.0647 8.87721 18.9672 9.13829 18.7852C9.39938 18.6032 9.59839 18.3455 9.70849 18.0469L11.1444 14.1492L15.0452 12.7102C15.3438 12.6001 15.6015 12.401 15.7835 12.14C15.9655 11.8789 16.0631 11.5683 16.0631 11.25C16.0631 10.9317 15.9655 10.6211 15.7835 10.36C15.6015 10.099 15.3438 9.89995 15.0452 9.78984ZM10.3577 12.4383C10.1464 12.516 9.95459 12.6387 9.79542 12.7979C9.63624 12.957 9.51355 13.1489 9.43583 13.3602L8.24833 16.5844L7.06005 13.3594C6.98232 13.1483 6.85971 12.9567 6.70068 12.7977C6.54165 12.6386 6.35 12.516 6.13896 12.4383L2.91396 11.25L6.13896 10.0617C6.35 9.98399 6.54165 9.86138 6.70068 9.70235C6.85971 9.54332 6.98232 9.35167 7.06005 9.14062L8.24833 5.91563L9.43661 9.14062C9.51433 9.35189 9.63702 9.54375 9.7962 9.70292C9.95537 9.86209 10.1472 9.98478 10.3585 10.0625L13.5827 11.25L10.3577 12.4383ZM10.4358 3.125C10.4358 2.87636 10.5346 2.6379 10.7104 2.46209C10.8862 2.28627 11.1247 2.1875 11.3733 2.1875H12.3108V1.25C12.3108 1.00136 12.4096 0.762903 12.5854 0.587087C12.7612 0.411272 12.9997 0.3125 13.2483 0.3125C13.497 0.3125 13.7354 0.411272 13.9112 0.587087C14.0871 0.762903 14.1858 1.00136 14.1858 1.25V2.1875H15.1233C15.372 2.1875 15.6104 2.28627 15.7862 2.46209C15.9621 2.6379 16.0608 2.87636 16.0608 3.125C16.0608 3.37364 15.9621 3.6121 15.7862 3.78791C15.6104 3.96373 15.372 4.0625 15.1233 4.0625H14.1858V5C14.1858 5.24864 14.0871 5.4871 13.9112 5.66291C13.7354 5.83873 13.497 5.9375 13.2483 5.9375C12.9997 5.9375 12.7612 5.83873 12.5854 5.66291C12.4096 5.4871 12.3108 5.24864 12.3108 5V4.0625H11.3733C11.1247 4.0625 10.8862 3.96373 10.7104 3.78791C10.5346 3.6121 10.4358 3.37364 10.4358 3.125ZM19.1858 6.875C19.1858 7.12364 19.0871 7.3621 18.9112 7.53791C18.7354 7.71373 18.497 7.8125 18.2483 7.8125H17.9358V8.125C17.9358 8.37364 17.8371 8.6121 17.6612 8.78791C17.4854 8.96373 17.247 9.0625 16.9983 9.0625C16.7497 9.0625 16.5112 8.96373 16.3354 8.78791C16.1596 8.6121 16.0608 8.37364 16.0608 8.125V7.8125H15.7483C15.4997 7.8125 15.2612 7.71373 15.0854 7.53791C14.9096 7.3621 14.8108 7.12364 14.8108 6.875C14.8108 6.62636 14.9096 6.3879 15.0854 6.21209C15.2612 6.03627 15.4997 5.9375 15.7483 5.9375H16.0608V5.625C16.0608 5.37636 16.1596 5.1379 16.3354 4.96209C16.5112 4.78627 16.7497 4.6875 16.9983 4.6875C17.247 4.6875 17.4854 4.78627 17.6612 4.96209C17.8371 5.1379 17.9358 5.37636 17.9358 5.625V5.9375H18.2483C18.497 5.9375 18.7354 6.03627 18.9112 6.21209C19.0871 6.3879 19.1858 6.62636 19.1858 6.875Z" fill="#1E1E1E"/>
</svg>
