<svg width="21" height="20" viewBox="0 0 21 20" fill="none" xmlns="http://www.w3.org/2000/svg">
<path d="M8.13021 9.05835C8.04687 9.05002 7.94687 9.05002 7.85521 9.05835C5.87187 8.99169 4.29688 7.36669 4.29688 5.36669C4.29687 3.32502 5.94687 1.66669 7.99687 1.66669C10.0385 1.66669 11.6969 3.32502 11.6969 5.36669C11.6885 7.36669 10.1135 8.99169 8.13021 9.05835Z" stroke="#1E1E1E" stroke-width="1.5" stroke-linecap="round" stroke-linejoin="round"/>
<path d="M14.1747 3.33331C15.7914 3.33331 17.0914 4.64165 17.0914 6.24998C17.0914 7.82498 15.8414 9.10831 14.2831 9.16665C14.2164 9.15831 14.1414 9.15831 14.0664 9.16665" stroke="#1E1E1E" stroke-width="1.5" stroke-linecap="round" stroke-linejoin="round"/>
<path d="M3.96563 12.1333C1.94896 13.4833 1.94896 15.6833 3.96563 17.025C6.25729 18.5583 10.0156 18.5583 12.3073 17.025C14.324 15.675 14.324 13.475 12.3073 12.1333C10.024 10.6083 6.26562 10.6083 3.96563 12.1333Z" stroke="#1E1E1E" stroke-width="1.5" stroke-linecap="round" stroke-linejoin="round"/>
<path d="M15.7812 16.6667C16.3813 16.5417 16.9479 16.3 17.4146 15.9417C18.7146 14.9667 18.7146 13.3584 17.4146 12.3834C16.9562 12.0334 16.3979 11.8 15.8063 11.6667" stroke="#1E1E1E" stroke-width="1.5" stroke-linecap="round" stroke-linejoin="round"/>
</svg>
