<svg width="20" height="20" viewBox="0 0 20 20" fill="none" xmlns="http://www.w3.org/2000/svg">
<path d="M8.64941 2.19458C13.4581 1.40237 17.6301 4.94059 17.8994 9.53247C18.1604 13.9767 14.4504 17.916 9.99902 17.9163C8.54221 17.9163 7.17228 17.5213 5.99219 16.8323L5.84082 16.7434L5.67188 16.7903L2.94629 17.5403L2.94336 17.5413C2.64096 17.6271 2.35132 17.3486 2.43457 17.0334L3.17578 14.2747L3.2207 14.1077L3.13477 13.9583C2.27221 12.4626 1.87557 10.6504 2.17676 8.73169V8.73071C2.69081 5.42497 5.34416 2.74037 8.64941 2.19458Z" stroke="#838789" stroke-width="0.833333"/>
<path d="M14.1654 12.6416C14.1654 12.7916 14.132 12.95 14.057 13.1C13.982 13.25 13.8904 13.3916 13.7737 13.525C13.5654 13.75 13.3404 13.9166 13.0904 14.0166C12.8404 14.125 12.5653 14.175 12.2737 14.175C11.8487 14.175 11.3903 14.075 10.9153 13.8666C10.432 13.6583 9.95704 13.3833 9.48204 13.0416C8.9987 12.6916 8.54869 12.3 8.11536 11.875C7.68202 11.4416 7.29872 10.9833 6.94872 10.5083C6.60705 10.0333 6.33202 9.55832 6.13202 9.08332C5.93202 8.60832 5.83203 8.14998 5.83203 7.71665C5.83203 7.43332 5.88203 7.15831 5.98203 6.90831C6.08203 6.64998 6.24037 6.41664 6.46537 6.20831C6.73204 5.94165 7.02369 5.81665 7.33202 5.81665C7.44869 5.81665 7.56538 5.84165 7.67372 5.89165C7.78205 5.94165 7.88202 6.01665 7.95702 6.12498L8.91537 7.49998C8.99037 7.60831 9.04872 7.69998 9.08205 7.79165C9.12372 7.88331 9.14034 7.96665 9.14034 8.04998C9.14034 8.14998 9.10702 8.24998 9.04869 8.34998C8.99035 8.44998 8.91538 8.54998 8.81538 8.64998L8.49871 8.98331C8.44871 9.03331 8.43203 9.08332 8.43203 9.14998C8.43203 9.18332 8.44038 9.21665 8.44871 9.24998C8.46538 9.28331 8.47369 9.30831 8.48203 9.33331C8.55703 9.47498 8.69038 9.64998 8.87372 9.86664C9.06538 10.0833 9.26537 10.3083 9.48204 10.525C9.70704 10.75 9.92369 10.95 10.1487 11.1416C10.3654 11.325 10.5487 11.45 10.6904 11.525C10.7154 11.5333 10.7404 11.55 10.7654 11.5583C10.7987 11.575 10.832 11.575 10.8737 11.575C10.9487 11.575 10.9987 11.55 11.0487 11.5L11.3654 11.1833C11.4737 11.075 11.5737 11 11.6654 10.95C11.7654 10.8916 11.857 10.8583 11.9654 10.8583C12.0487 10.8583 12.132 10.875 12.2237 10.9166C12.3154 10.9583 12.4154 11.0083 12.5154 11.0833L13.8987 12.0666C14.007 12.1416 14.082 12.2333 14.132 12.3333C14.1404 12.425 14.1654 12.525 14.1654 12.6416Z" fill="#838789"/>
</svg>
