<svg width="20" height="20" viewBox="0 0 20 20" fill="none" xmlns="http://www.w3.org/2000/svg">
<g clip-path="url(#clip0_1702_5987)">
<g clip-path="url(#clip1_1702_5987)">
<g clip-path="url(#clip2_1702_5987)">
<path d="M0.230469 19.1596C0.602469 18.7556 0.934469 18.3956 1.26647 18.0356C3.40647 15.7236 5.55047 13.4076 7.69447 11.0996C7.80647 10.9796 7.81847 10.9116 7.71447 10.7756C5.28247 7.53159 2.85847 4.28759 0.430469 1.04359C0.390469 0.991588 0.354469 0.935588 0.314469 0.883588C0.362469 0.811588 0.430469 0.839588 0.482469 0.839588C2.29447 0.839588 4.11047 0.839588 5.92247 0.835588C6.05447 0.835588 6.13847 0.871588 6.21847 0.983588C7.78247 3.08359 9.35447 5.17959 10.9185 7.27959C11.0265 7.42759 11.0785 7.44759 11.2145 7.29959C13.1505 5.19559 15.0985 3.09959 17.0345 0.999588C17.1385 0.887588 17.2385 0.835588 17.3945 0.839588C17.8145 0.851588 18.2345 0.843588 18.6545 0.843588C18.7185 0.843588 18.7825 0.851588 18.8865 0.855588C18.6665 1.09559 18.4705 1.31159 18.2745 1.52359C16.1825 3.78359 14.0905 6.04359 11.9945 8.29959C11.8625 8.44359 11.8505 8.53159 11.9745 8.69159C14.5465 12.1196 17.1105 15.5516 19.6785 18.9796C19.7145 19.0276 19.7465 19.0756 19.7785 19.1276C19.7145 19.1876 19.6465 19.1636 19.5825 19.1636C17.7825 19.1636 15.9825 19.1636 14.1825 19.1676C14.0425 19.1676 13.9545 19.1276 13.8665 19.0156C12.1745 16.7436 10.4785 14.4796 8.78247 12.2116C8.72647 12.1356 8.67047 12.0636 8.60247 11.9796C8.22647 12.3836 7.85847 12.7796 7.49447 13.1716C5.70247 15.1076 3.90647 17.0436 2.11847 18.9876C1.99447 19.1196 1.87447 19.1796 1.69047 19.1756C1.22247 19.1516 0.758469 19.1596 0.230469 19.1596ZM2.84247 2.09559C2.84647 2.19559 2.90647 2.23559 2.94247 2.28759C3.74647 3.36759 4.55447 4.44359 5.35847 5.51959C8.41047 9.59959 11.4625 13.6796 14.5105 17.7636C14.5825 17.8596 14.6585 17.8956 14.7745 17.8956C15.5465 17.8916 16.3225 17.8956 17.0945 17.8916C17.1425 17.8916 17.2025 17.9156 17.2465 17.8516C16.8945 17.3796 16.5385 16.9036 16.1865 16.4316C13.8945 13.3716 11.6065 10.3076 9.31447 7.24759C8.06647 5.57959 6.81847 3.90759 5.57047 2.23559C5.51447 2.15959 5.46647 2.09159 5.35047 2.09559C4.52247 2.09959 3.69047 2.09559 2.84247 2.09559Z" fill="#838789"/>
</g>
</g>
</g>
<defs>
<clipPath id="clip0_1702_5987">
<rect width="20" height="20" fill="white"/>
</clipPath>
<clipPath id="clip1_1702_5987">
<rect width="20" height="20" fill="white"/>
</clipPath>
<clipPath id="clip2_1702_5987">
<rect width="20" height="20" fill="white"/>
</clipPath>
</defs>
</svg>
