<svg width="151" height="64" viewBox="0 0 151 64" fill="none" xmlns="http://www.w3.org/2000/svg">
<g clip-path="url(#clip0_1548_19963)">
<mask id="mask0_1548_19963" style="mask-type:luminance" maskUnits="userSpaceOnUse" x="0" y="18" width="151" height="27">
<path d="M150.179 18.7285H0.757812V44.9781H150.179V18.7285Z" fill="white"/>
</mask>
<g mask="url(#mask0_1548_19963)">
<path d="M18.1134 23.1485H9.25451C8.09621 23.1485 7.15625 22.2103 7.15625 21.0523C7.15625 19.8942 8.09511 18.9561 9.25451 18.9561H18.1134C19.2718 18.9561 20.2117 19.8942 20.2117 21.0523C20.2117 22.2103 19.2728 23.1485 18.1134 23.1485Z" fill="#1E1E1E"/>
<path d="M24.5322 30.1369H2.83496C1.68775 30.1369 0.757812 29.1988 0.757812 28.0407C0.757812 26.8827 1.68775 25.9445 2.83496 25.9445H24.5322C25.6794 25.9445 26.6092 26.8827 26.6092 28.0407C26.6092 29.1988 25.6794 30.1369 24.5322 30.1369Z" fill="#1E1E1E"/>
<path d="M4.66868 37.1241C3.52259 37.1241 2.59375 36.1859 2.59375 35.0279C2.59375 33.8697 3.52259 32.9316 4.66868 32.9316H22.6994C23.8454 32.9316 24.7743 33.8697 24.7743 35.0279C24.7743 36.1859 23.8454 37.1241 22.6994 37.1241H4.66868Z" fill="#1E1E1E"/>
<path d="M17.1243 44.1108H10.239C9.0807 44.1108 8.14062 43.1728 8.14062 42.0146C8.14062 40.8566 9.0796 39.9185 10.239 39.9185H17.1243C18.2827 39.9185 19.2226 40.8566 19.2226 42.0146C19.2226 43.1728 18.2837 44.1108 17.1243 44.1108Z" fill="#1E1E1E"/>
<path d="M135.31 33.876C135.485 31.0995 137.705 29.3069 141.018 29.3069C144.154 29.3069 146.374 31.0995 146.374 33.6649C146.374 33.7704 146.304 33.876 146.126 33.876H135.31ZM141.264 44.9475C144.541 44.9475 147.395 43.6114 149.052 41.2924C149.3 40.9415 149.44 40.5539 149.44 40.1674C149.44 39.289 148.77 38.6558 147.889 38.6558C147.326 38.6558 146.867 38.9025 146.269 39.5343C144.824 41.0804 143.308 41.7835 141.37 41.7835C137.846 41.7835 135.45 39.7454 135.273 36.6168H149.58C149.967 36.6168 150.179 36.4058 150.179 36.055V35.6684C150.179 29.9743 146.548 26.2494 140.981 26.2494C135.413 26.2494 131.432 30.0099 131.432 35.6684C131.432 41.3269 135.31 44.9475 141.264 44.9475ZM127.662 44.9475C128.791 44.9475 129.601 44.1033 129.601 42.9794V20.6965C129.601 19.5714 128.755 18.7285 127.662 18.7285C126.57 18.7285 125.724 19.5725 125.724 20.6965V42.9794C125.724 44.1045 126.57 44.9475 127.662 44.9475ZM106.062 44.9475C107.155 44.9475 107.929 44.1033 107.929 42.9794V41.8544C109.127 43.8224 111.488 44.9475 114.449 44.9475C120.052 44.9475 123.893 41.1169 123.893 35.5285C123.893 29.9399 120.087 26.2494 114.766 26.2494C111.771 26.2494 109.163 27.5145 108.036 29.5534V20.6965C108.036 19.5714 107.19 18.7285 106.098 18.7285C105.005 18.7285 104.159 19.5725 104.159 20.6965V42.9794C104.159 44.1045 104.97 44.9475 106.062 44.9475ZM113.92 41.7844C110.114 41.7844 107.86 39.5 107.86 35.5984C107.86 31.6969 110.114 29.4124 113.92 29.4124C117.726 29.4124 120.016 31.6969 120.016 35.5984C120.016 39.5 117.761 41.7844 113.92 41.7844ZM61.2397 44.9475C63.8117 44.9475 66.0322 43.8224 67.0885 42.0299V42.9783C67.0885 44.1033 67.9353 44.9463 69.027 44.9463C70.1198 44.9463 70.966 44.1023 70.966 42.9783V28.7794C70.966 27.6544 70.1198 26.8115 69.027 26.8115C67.9353 26.8115 67.0885 27.6555 67.0885 28.7794V37.2843C67.0885 40.3074 65.4675 41.9587 62.5075 41.9587C59.548 41.9587 57.8913 40.3074 57.8913 37.2843V28.7794C57.8913 27.6544 57.045 26.8115 55.9527 26.8115C54.8603 26.8115 54.0142 27.6555 54.0142 28.7794V37.4953C54.0142 42.2752 56.5862 44.9463 61.2374 44.9463L61.2397 44.9475ZM35.7984 29.0615V22.278C35.7984 22.1369 35.9398 21.997 36.0801 21.997H43.6206C46.0526 21.997 47.4968 23.2974 47.4968 25.512C47.4968 27.7265 46.0526 29.0615 43.6206 29.0615H35.7984ZM32.4512 44.3855H43.9391C49.0134 44.3855 52.1846 41.5034 52.1846 36.9344C52.1846 33.3495 50.5288 31.3115 47.0748 30.6785C49.8229 30.1166 51.4085 28.1131 51.4085 25.231C51.4085 21.2596 48.4488 18.7285 43.8323 18.7285H32.4501C32.1327 18.7285 31.8867 18.9751 31.8867 19.2905V43.8224C31.8867 44.1389 32.1339 44.3843 32.4501 44.3843L32.4512 44.3855ZM35.7984 40.8004V32.4354H43.7621C46.5457 32.4354 48.2372 34.087 48.2372 36.7579C48.2372 39.4289 46.5457 41.0804 43.7621 41.0804H36.0801C35.9387 41.0804 35.7984 40.9402 35.7984 40.8004ZM75.1596 44.9475C76.2872 44.9475 77.098 44.1033 77.098 42.9794V33.9115C77.098 31.0295 78.7538 29.2369 81.4677 29.2369C84.181 29.2369 85.6248 30.9595 85.6248 33.9115V42.9794C85.6248 44.1045 86.471 44.9475 87.5632 44.9475C88.6555 44.9475 89.5017 44.1033 89.5017 42.9794V33.9115C89.5017 31.0295 91.1575 29.2369 93.8714 29.2369C96.5853 29.2369 98.0291 30.9595 98.0291 33.9115V42.9794C98.0291 44.1045 98.8758 44.9475 99.9681 44.9475C101.061 44.9475 101.906 44.1033 101.906 42.9794V33.7005C101.906 29.0259 99.2992 26.2494 94.9295 26.2494C92.0401 26.2494 89.8903 27.48 88.7273 29.7645C87.5644 27.41 85.5907 26.2494 82.7019 26.2494C80.0598 26.2494 78.1567 27.2335 77.0986 29.167V28.7805C77.0986 27.6555 76.253 26.8126 75.1602 26.8126C74.0679 26.8126 73.2217 27.6566 73.2217 28.7805V42.9794C73.2217 44.1045 74.0673 44.9475 75.1596 44.9475Z" fill="#1E1E1E"/>
</g>
</g>
<defs>
<clipPath id="clip0_1548_19963">
<rect width="150" height="63.7066" fill="white" transform="translate(0.5)"/>
</clipPath>
</defs>
</svg>
