<svg width="80" height="27" viewBox="0 0 80 27" fill="none" xmlns="http://www.w3.org/2000/svg">
<g clip-path="url(#clip0_1702_5926)">
<g clip-path="url(#clip1_1702_5926)">
<path d="M38.4733 19.206H27.701L25.6458 24.1787H20.1445L30.4856 0.974731H35.7891L46.1656 24.1787H40.5285L38.4733 19.206ZM36.7842 15.131L33.1049 6.24568L29.4255 15.131H36.7842Z" fill="#838789"/>
<path d="M48.582 0.974731H53.9504V24.1787H48.582V0.974731Z" fill="#838789"/>
<path d="M74.2354 24.1783L69.7617 17.7144H64.8215V24.1783H59.4531V0.974335H69.496C71.5512 0.974335 73.3355 1.31687 74.8496 2.00195C76.363 2.68702 77.5286 3.66001 78.3459 4.91943C79.1623 6.17958 79.5713 7.67154 79.5713 9.39604C79.5713 11.1191 79.1564 12.6051 78.3281 13.8549C77.4991 15.1033 76.3231 16.0578 74.7994 16.7193L80.0024 24.1783H74.2354ZM74.135 9.39604C74.135 8.09086 73.7142 7.09129 72.8741 6.39588C72.0355 5.699 70.81 5.35055 69.1977 5.35055H64.8215V13.4386H69.1977C70.81 13.4386 72.0355 13.0857 72.8741 12.3785C73.7142 11.672 74.135 10.6776 74.135 9.39604Z" fill="#838789"/>
<mask id="mask0_1702_5926" style="mask-type:luminance" maskUnits="userSpaceOnUse" x="0" y="1" width="22" height="19">
<path d="M0 1.48065H21.1931V19.2358H0V1.48065Z" fill="white"/>
</mask>
<g mask="url(#mask0_1702_5926)">
<path d="M10.5759 1.48193H0V6.09069H5.65409V6.08922H10.2614C13.7163 6.08922 15.4622 7.65943 15.4622 10.3473C15.4622 13.0345 13.7163 14.5707 10.2614 14.5707H6.82344H0V19.1891H5.65409V19.178H10.5759C17.1025 19.178 21.1857 15.7917 21.1857 10.3473C21.1857 4.90215 17.1025 1.48193 10.5759 1.48193Z" fill="#838789"/>
</g>
<mask id="mask1_1702_5926" style="mask-type:luminance" maskUnits="userSpaceOnUse" x="0" y="20" width="6" height="6">
<path d="M0 20.7487H5.81502V25.0547H0V20.7487Z" fill="white"/>
</mask>
<g mask="url(#mask1_1702_5926)">
<path d="M0 20.8805H5.65409V25.0529H0V20.8805Z" fill="#838789"/>
</g>
</g>
</g>
<defs>
<clipPath id="clip0_1702_5926">
<rect width="80" height="27" fill="white"/>
</clipPath>
<clipPath id="clip1_1702_5926">
<rect width="80" height="25.7627" fill="white" transform="translate(0 -0.381348)"/>
</clipPath>
</defs>
</svg>
