<svg width="80" height="25" viewBox="0 0 80 25" fill="none" xmlns="http://www.w3.org/2000/svg">
<path d="M38.4733 18.7061H27.701L25.6458 23.6788H20.1445L30.4856 0.474854H35.7891L46.1656 23.6788H40.5285L38.4733 18.7061ZM36.7842 14.6311L33.1049 5.7458L29.4255 14.6311H36.7842Z" fill="#4D98E2"/>
<path d="M48.582 0.474854H53.9504V23.6788H48.582V0.474854Z" fill="#4D98E2"/>
<path d="M74.2354 23.6784L69.7617 17.2144H64.8215V23.6784H59.4531V0.474365H69.496C71.5512 0.474365 73.3355 0.816903 74.8496 1.50198C76.363 2.18705 77.5286 3.16004 78.3459 4.41946C79.1623 5.67961 79.5713 7.17157 79.5713 8.89607C79.5713 10.6191 79.1564 12.1052 78.3281 13.355C77.4991 14.6033 76.3231 15.5578 74.7994 16.2193L80.0024 23.6784H74.2354ZM74.135 8.89607C74.135 7.59089 73.7142 6.59132 72.8741 5.89591C72.0355 5.19903 70.81 4.85058 69.1977 4.85058H64.8215V12.9386H69.1977C70.81 12.9386 72.0355 12.5857 72.8741 11.8785C73.7142 11.172 74.135 10.1776 74.135 8.89607Z" fill="#4D98E2"/>
<mask id="mask0_1546_5643" style="mask-type:luminance" maskUnits="userSpaceOnUse" x="0" y="0" width="22" height="19">
<path d="M0 0.980713H21.1931V18.7358H0V0.980713Z" fill="white"/>
</mask>
<g mask="url(#mask0_1546_5643)">
<path d="M10.5759 0.982178H0V5.59094H5.65409V5.58946H10.2614C13.7163 5.58946 15.4622 7.15967 15.4622 9.84756C15.4622 12.5347 13.7163 14.071 10.2614 14.071H6.82344H0V18.6893H5.65409V18.6782H10.5759C17.1025 18.6782 21.1857 15.292 21.1857 9.84756C21.1857 4.40239 17.1025 0.982178 10.5759 0.982178Z" fill="#4D98E2"/>
</g>
<mask id="mask1_1546_5643" style="mask-type:luminance" maskUnits="userSpaceOnUse" x="0" y="20" width="6" height="5">
<path d="M0 20.2488H5.81502V24.5549H0V20.2488Z" fill="white"/>
</mask>
<g mask="url(#mask1_1546_5643)">
<path d="M0 20.3806H5.65409V24.5531H0V20.3806Z" fill="#4D98E2"/>
</g>
</svg>
